<svg width="140" height="76" viewBox="0 0 140 76" fill="none" xmlns="http://www.w3.org/2000/svg">
<g clip-path="url(#clip0_465_62767)">
<path d="M27.8375 19.1108C27.8375 19.1108 49.5153 33.9851 71.8138 39.2524C94.1123 44.5197 125.08 35.5338 134.991 46.6895C144.901 57.8452 129.727 73.6487 129.727 73.6487" stroke="#034DA2" stroke-width="3" stroke-linecap="round" stroke-linejoin="round" stroke-dasharray="5 7"/>
<path d="M19.9802 19.158L11.9062 11.6171L14.7712 9.01904L18.5738 12.3203L19.9802 19.158Z" fill="#034896"/>
<path d="M25.7418 4.65754L1.78029 0.0289642C0.496155 -0.219762 -0.464117 1.18441 0.235704 2.28785L11.9447 20.7637C12.6332 21.8513 14.2887 21.6139 14.642 20.377L17.2737 11.1787L26.0362 7.49754C27.3974 6.92547 27.189 4.94018 25.7418 4.6598V4.65754Z" fill="#034DA2"/>
<path d="M19.6971 10.143L0.903809 0.899414L16.7551 12.8632L19.9801 19.1559C20.1047 19.3979 20.4739 19.2939 20.4512 19.0225L19.6993 10.143H19.6971Z" fill="#CDE4FE"/>
</g>
<defs>
<clipPath id="clip0_465_62767">
<rect width="140" height="76" fill="white"/>
</clipPath>
</defs>
</svg>
