<svg width="160" height="160" viewBox="0 0 160 160" fill="none" xmlns="http://www.w3.org/2000/svg">
<g opacity="0.4">
<path d="M39.6041 134.749L40.4759 135.419L35.7818 141.534L34.9101 140.863L36.9352 138.208L32.7106 139.187L31.6108 138.342L35.7148 137.39L36.1037 132.08L37.1766 132.898L36.8682 137.122L37.9277 136.881L39.5773 134.722L39.6041 134.749Z" fill="white"/>
<path d="M32.0537 135.365C31.3295 135.512 30.6858 135.338 30.1225 134.829C29.5324 134.306 29.2776 133.689 29.3312 132.992C29.3983 132.308 29.747 131.624 30.4041 130.9C31.0076 130.229 31.638 129.814 32.2952 129.653C33.0328 129.465 33.7168 129.653 34.3203 130.202C34.897 130.725 35.1384 131.382 35.0311 132.16C34.9372 132.844 34.5885 133.514 34.0118 134.158C33.4083 134.829 32.7511 135.231 32.0672 135.378L32.0537 135.365ZM34.0252 132.066C34.146 131.624 34.0252 131.235 33.69 130.927C33.3144 130.591 32.8987 130.511 32.4561 130.672C32.0806 130.819 31.6648 131.141 31.1954 131.664C30.7796 132.12 30.5248 132.536 30.4444 132.911C30.3371 133.354 30.4712 133.756 30.8467 134.091C31.1954 134.413 31.5978 134.493 32.0403 134.346C32.389 134.212 32.778 133.903 33.2071 133.447C33.6765 132.938 33.9582 132.482 34.0655 132.08L34.0252 132.066Z" fill="white"/>
<path d="M26.9711 131.463L27.2661 131.181C27.1454 131.208 26.9577 131.181 26.7163 131.087C26.381 130.94 26.0189 130.685 25.6567 130.31L26.4212 129.572C26.8504 130.015 27.2661 130.256 27.6417 130.283C27.9501 130.31 28.2318 130.189 28.4866 129.948L31.1421 127.373L31.8931 128.151L27.6953 132.214L26.9711 131.463Z" fill="white"/>
<path d="M25.0523 123.566C25.5887 123.217 26.1252 123.07 26.6617 123.11C27.292 123.164 27.8419 123.459 28.3247 124.022C28.8075 124.585 28.9416 125.242 28.727 125.993C28.5259 126.663 28.0833 127.294 27.3859 127.884C26.7287 128.447 26.0447 128.755 25.3339 128.782C24.6097 128.822 23.9928 128.568 23.5099 128.004C23.0405 127.455 22.893 126.838 23.054 126.154C23.2283 125.43 23.7245 124.706 24.5695 123.995L26.9835 126.824C27.3993 126.435 27.6675 126.073 27.7882 125.738C27.9223 125.336 27.8419 124.974 27.5602 124.639C27.3054 124.33 27.0104 124.156 26.7153 124.129C26.4337 124.102 26.1118 124.183 25.7497 124.397L25.0523 123.579V123.566ZM24.5292 125.483C24.2073 125.765 24.0196 126.073 23.9659 126.395C23.9123 126.744 24.033 127.093 24.328 127.428C24.5963 127.736 24.9047 127.884 25.2669 127.884C25.6021 127.884 25.9374 127.75 26.2325 127.481L24.5292 125.483Z" fill="white"/>
<path d="M23.0274 124.409C22.4507 124.772 21.9143 124.879 21.4046 124.745C20.9352 124.624 20.5061 124.289 20.1037 123.739C19.8489 123.39 19.7014 122.988 19.688 122.546C19.6611 121.956 19.9159 121.459 20.439 121.071L23.0006 119.18C23.0006 119.18 23.0945 119.099 23.1079 119.073C23.1213 119.046 23.1079 119.006 23.0811 118.965L22.9604 118.871L22.7458 118.684L23.5505 118.094C23.6444 118.188 23.7114 118.255 23.7651 118.308C23.8321 118.389 23.8992 118.456 23.9528 118.536C24.154 118.804 24.2479 119.046 24.2479 119.274C24.2479 119.421 24.2077 119.542 24.1406 119.596C24.2747 119.622 24.4491 119.689 24.6368 119.797C24.9855 119.998 25.3074 120.293 25.6025 120.695C25.8841 121.071 25.978 121.486 25.8975 121.929C25.8036 122.371 25.5488 122.76 25.1062 123.082C24.7307 123.35 24.3954 123.511 24.0869 123.538C23.631 123.578 23.2018 123.39 22.7726 122.988C22.4239 122.653 22.1691 122.425 22.0082 122.277C21.8204 122.103 21.6729 121.982 21.5656 121.929C21.4717 121.862 21.3778 121.835 21.3242 121.822C21.2839 121.822 21.2169 121.848 21.1498 121.902C20.8413 122.13 20.667 122.331 20.6536 122.519C20.6402 122.693 20.7475 122.948 20.9755 123.27C21.2303 123.618 21.4583 123.819 21.646 123.86C21.8204 123.887 22.0618 123.806 22.4105 123.605L23.014 124.423L23.0274 124.409ZM22.263 121.084C22.263 121.084 22.263 121.111 22.3166 121.178C22.3569 121.232 22.4641 121.339 22.6519 121.513L23.1213 121.969C23.403 122.237 23.631 122.385 23.7919 122.438C23.9931 122.492 24.2211 122.438 24.4491 122.264C24.6905 122.09 24.8246 121.929 24.8782 121.768C24.9319 121.553 24.8514 121.299 24.6368 121.004C24.4222 120.722 24.154 120.521 23.8187 120.44C23.4968 120.36 23.2152 120.4 22.9872 120.574L22.263 121.097V121.084Z" fill="white"/>
<path d="M20.8809 113.923L21.4576 114.849L18.1449 116.914C17.7962 117.128 17.5816 117.356 17.5146 117.597C17.4475 117.839 17.5146 118.12 17.7292 118.429C17.8901 118.684 18.1315 118.871 18.4534 119.005C18.8289 119.139 19.1776 119.099 19.4995 118.898L22.7451 116.873L23.3218 117.799L18.279 120.936L17.7023 120.011L18.051 119.797C17.8767 119.743 17.7157 119.676 17.5548 119.569C17.2463 119.381 16.9915 119.126 16.8038 118.818C16.5355 118.389 16.4148 117.973 16.4416 117.53C16.4819 116.94 16.8038 116.458 17.4073 116.082L20.9077 113.896L20.8809 113.923Z" fill="white"/>
<path d="M9.97803 109.324L14.7123 107.125C15.4768 106.777 16.1473 106.696 16.7375 106.897C17.3812 107.112 17.8909 107.635 18.2798 108.48C18.6821 109.338 18.7358 110.075 18.4407 110.692C18.1859 111.215 17.7031 111.631 16.9655 111.98L12.2178 114.179L11.7484 113.186L16.5899 110.934C17.113 110.692 17.4349 110.411 17.5556 110.116C17.6763 109.807 17.6092 109.392 17.3678 108.869C17.1398 108.386 16.8716 108.077 16.5497 107.957C16.201 107.823 15.7584 107.876 15.2085 108.144L10.4474 110.357L9.97803 109.338V109.324Z" fill="white"/>
<path d="M15.1172 101.012L15.4927 102.031L11.818 103.372C11.429 103.519 11.1742 103.694 11.0669 103.908C10.9596 104.136 10.973 104.418 11.0937 104.766C11.201 105.048 11.4022 105.289 11.6838 105.477C12.0191 105.692 12.3678 105.732 12.7165 105.598L16.3108 104.297L16.6864 105.316L11.1071 107.341L10.7316 106.322L11.1071 106.188C10.9596 106.107 10.8121 106 10.678 105.866C10.4231 105.611 10.222 105.316 10.1013 104.981C9.92692 104.512 9.9001 104.069 10.0074 103.653C10.1683 103.09 10.5841 102.674 11.2547 102.433L15.1306 101.025L15.1172 101.012Z" fill="white"/>
<path d="M8.54331 102.137L7.51061 102.445L7.20215 101.413L8.23484 101.104L8.55672 102.15L8.54331 102.137ZM14.5651 99.1736L14.8736 100.206L9.21388 101.922L8.90542 100.877L14.5651 99.1602V99.1736Z" fill="white"/>
<path d="M7.76602 96.558L7.48438 95.4316L13.8951 95.9814L14.1231 96.8798L8.70483 100.313L8.42319 99.213L12.2187 96.853L7.76602 96.5714V96.558Z" fill="white"/>
<path d="M10.4473 89.7062C11.0776 89.6794 11.6275 89.8269 12.0701 90.1353C12.5797 90.4974 12.9016 91.0337 13.0357 91.7578C13.1698 92.4953 12.9418 93.1256 12.3786 93.6619C11.8689 94.1447 11.1581 94.4531 10.2595 94.614C9.40118 94.7615 8.66355 94.6676 8.0332 94.3458C7.37604 94.0106 6.9871 93.4742 6.8664 92.7501C6.74569 92.0394 6.92004 91.436 7.41627 90.9265C7.92591 90.3901 8.73061 90.028 9.83035 89.8403L10.4741 93.501C11.0374 93.3804 11.4397 93.206 11.7214 92.9781C12.0433 92.7099 12.164 92.3478 12.0835 91.9187C12.0164 91.5165 11.8555 91.2349 11.6141 91.0471C11.3861 90.8728 11.0642 90.7924 10.6485 90.7924L10.4607 89.7196L10.4473 89.7062ZM9.01225 91.0874C8.58308 91.1678 8.27461 91.3287 8.06003 91.5835C7.83203 91.8651 7.76497 92.2137 7.84544 92.6562C7.9125 93.0585 8.11367 93.3401 8.42214 93.5144C8.71719 93.6753 9.06589 93.729 9.46824 93.6619L9.01225 91.074V91.0874Z" fill="white"/>
<path d="M6.4515 88.3917L6.85385 88.3515C6.73314 88.2979 6.61244 88.1638 6.47832 87.9358C6.30397 87.614 6.18327 87.1983 6.11621 86.6754L7.16231 86.5547C7.22937 87.1715 7.40372 87.614 7.69878 87.8688C7.92677 88.0699 8.22183 88.1504 8.57053 88.1236L12.2453 87.7213L12.366 88.794L6.55879 89.4377L6.43809 88.3917H6.4515Z" fill="white"/>
<path d="M7.87198 82.9481C7.55011 82.9615 7.29529 83.042 7.13435 83.1895C6.93318 83.3772 6.83929 83.6588 6.86612 84.0208C6.86612 84.2756 6.93317 84.4633 7.02706 84.584C7.13435 84.7315 7.3087 84.7986 7.56352 84.7852C7.79152 84.7852 7.95245 84.7047 8.03292 84.5974C8.11339 84.4633 8.2341 84.1147 8.38162 83.5381C8.54256 82.8408 8.75715 82.3581 9.01197 82.0899C9.2802 81.8217 9.66913 81.6742 10.2056 81.6474C10.7689 81.6206 11.2115 81.7815 11.5468 82.1301C11.8686 82.4788 12.0564 82.9615 12.11 83.6051C12.1503 84.4499 11.9357 85.0533 11.4395 85.4556C11.0908 85.7372 10.6348 85.8847 10.0849 85.9115L10.0312 84.8254C10.3934 84.812 10.6616 84.7315 10.8225 84.5974C11.0505 84.4231 11.1578 84.1147 11.1444 83.6722C11.131 83.3101 11.0639 83.0554 10.9432 82.9213C10.8225 82.7872 10.6348 82.7201 10.3665 82.7336C10.0849 82.747 9.88372 82.8274 9.76302 82.9615C9.61549 83.1358 9.49478 83.4711 9.37408 83.9806C9.19973 84.6377 9.01197 85.107 8.79738 85.3618C8.54256 85.697 8.16704 85.8713 7.67081 85.8981C7.16117 85.9249 6.732 85.764 6.39671 85.3886C6.07483 85.0399 5.90048 84.5974 5.87366 84.0342C5.83343 83.2431 6.06142 82.6531 6.57106 82.2776C6.90635 82.0229 7.32211 81.8888 7.83175 81.862L7.8854 82.9481H7.87198Z" fill="white"/>
<path d="M5.17765 79.9855H4.09131V81.0717H5.17765V79.9855ZM5.88846 79.9721V81.0583L11.803 81.0315V79.9453L5.88846 79.9721Z" fill="white"/>
<path d="M6.92128 77.5987L10.7838 77.7194C10.8911 77.7194 10.9582 77.6925 10.9984 77.6255C11.0252 77.5853 11.0386 77.5182 11.0386 77.3975V77.3573L11.052 76.9148L12.0177 76.9416C12.0177 77.1025 12.0177 77.2635 12.0311 77.4378C12.0311 77.5316 12.0311 77.6389 12.0311 77.7462C12.0311 78.0814 11.9104 78.3496 11.6958 78.5239C11.4678 78.7116 11.1325 78.7921 10.6899 78.7787L6.89445 78.658V79.3151L5.88859 79.2882V78.6312L4.3999 78.591L4.44014 77.5182L5.95564 77.5585L5.98247 76.7539L6.97492 76.7807L6.9481 77.5853L6.92128 77.5987Z" fill="white"/>
<path d="M6.23695 72.852L6.33083 71.7793L8.54374 72.7448L11.7223 74.1125C12.3526 74.3673 12.7818 74.6757 13.0232 75.0377C13.2378 75.3461 13.3317 75.7618 13.3048 76.258C13.3048 76.3384 13.2914 76.4189 13.2646 76.4859C13.2646 76.5396 13.2378 76.6066 13.211 76.6871L13.1707 76.8346L12.1515 76.7541C12.1917 76.62 12.2319 76.5128 12.2453 76.4189C12.2722 76.3116 12.299 76.1775 12.3124 76.03C12.3258 75.8289 12.299 75.6546 12.2051 75.5339C12.0978 75.3998 11.91 75.2791 11.6284 75.1584L5.94189 76.5128L6.02236 75.4802L10.2336 74.488L6.23695 72.852Z" fill="white"/>
<path d="M8.409 63.9211C7.75183 63.8943 7.24219 64.0284 6.89349 64.3368C6.63867 64.5647 6.47774 64.8597 6.39727 65.2486C6.27656 65.852 6.42409 66.3884 6.83985 66.8711C7.29584 67.3807 7.97983 67.7293 8.90523 67.917C9.84404 68.1048 10.6219 68.0779 11.212 67.8634C11.8424 67.622 12.2179 67.1795 12.352 66.5225C12.4325 66.0934 12.3654 65.7179 12.1508 65.3693C11.8692 64.9402 11.3595 64.5916 10.6219 64.3234L10.8365 63.2238C12.0435 63.6395 12.808 64.2563 13.1567 65.0743C13.3713 65.5704 13.4115 66.1336 13.2908 66.7638C13.1299 67.5818 12.6873 68.1986 11.9497 68.6411C11.1047 69.1507 10.0184 69.2714 8.71747 69.0166C7.53725 68.7886 6.65209 68.3327 6.06198 67.6757C5.43163 66.965 5.21705 66.0934 5.41822 65.0609C5.59257 64.1893 5.9681 63.5725 6.57162 63.2104C7.10808 62.8886 7.79207 62.7679 8.62359 62.8484L8.409 63.9345V63.9211Z" fill="white"/>
<path d="M9.01434 61.4006C8.55834 60.8106 8.45105 60.1536 8.65222 59.4295C8.86681 58.6786 9.30939 58.169 9.96656 57.9142C10.5969 57.6729 11.3882 57.6863 12.3136 57.9679C13.1853 58.2227 13.8291 58.5981 14.2583 59.1211C14.7545 59.7111 14.8752 60.3949 14.6606 61.1727C14.446 61.9236 13.9632 62.4197 13.2122 62.6611C12.555 62.8756 11.8039 62.8622 10.959 62.6209C10.0873 62.3661 9.44351 61.9638 9.01434 61.4006ZM12.8366 61.7225C13.2926 61.6286 13.5877 61.3604 13.7084 60.9179C13.8559 60.4352 13.7486 60.0329 13.3865 59.6977C13.0915 59.4161 12.6086 59.1881 11.9515 59.0004C11.3479 58.8261 10.8785 58.7858 10.503 58.8663C10.047 58.9736 9.75197 59.2552 9.61786 59.7379C9.48374 60.1938 9.57762 60.5827 9.91291 60.9179C10.1946 61.1727 10.6371 61.3872 11.2407 61.5615C11.9112 61.7493 12.4477 61.8163 12.85 61.7359L12.8366 61.7225Z" fill="white"/>
<path d="M16.5229 55.1112L16.2815 55.0173C16.2815 55.0173 16.3351 55.2453 16.3351 55.5135C16.3351 55.8889 16.2681 56.2644 16.134 56.613C15.9596 57.0824 15.6914 57.4176 15.3293 57.6187C14.9001 57.8601 14.3905 57.8601 13.7869 57.6455L9.80371 56.1571L10.1792 55.138L14.0418 56.5862C14.4039 56.7203 14.6721 56.7605 14.8465 56.6801C15.0208 56.613 15.1683 56.4119 15.3025 56.0767C15.45 55.6744 15.4366 55.2989 15.2354 54.9637C15.0879 54.6821 14.8465 54.4944 14.538 54.3737L10.9839 53.0328L11.3595 52.0137L16.8984 54.0921L16.5229 55.1112Z" fill="white"/>
<path d="M19.1125 49.2918L18.6565 50.2707L15.1159 48.6214C14.7404 48.4471 14.4319 48.3934 14.2039 48.4739C13.9759 48.5543 13.7747 48.7689 13.6138 49.1041C13.4797 49.3723 13.4528 49.6807 13.5333 50.0294C13.6272 50.4182 13.8418 50.6864 14.1771 50.8473L17.6373 52.4564L17.1813 53.4353L11.8032 50.9278L12.2592 49.9489L12.6213 50.1232C12.5811 49.9489 12.5543 49.7746 12.5409 49.5868C12.5409 49.2248 12.6079 48.8762 12.7689 48.5543C12.9834 48.0984 13.2651 47.7632 13.6406 47.5486C14.1502 47.2536 14.7269 47.2671 15.3841 47.5621L19.1259 49.3053L19.1125 49.2918Z" fill="white"/>
<path d="M17.7578 44.0476C17.3554 43.8867 17.0201 43.8197 16.7653 43.8599C16.4568 43.9001 16.2154 44.0744 16.0411 44.3963C15.8265 44.7851 15.8131 45.1472 16.0008 45.4824C16.1752 45.7908 16.5507 46.0992 17.114 46.421C17.7578 46.7831 18.2674 46.9708 18.6697 47.0111C19.1794 47.0513 19.5549 46.8636 19.7829 46.4345C19.9573 46.1395 19.9707 45.8445 19.8366 45.5763C19.7158 45.3081 19.4476 45.0399 19.0453 44.7851L19.5817 43.8331C20.1718 44.2219 20.5608 44.651 20.7619 45.1204C21.0302 45.697 20.9765 46.3138 20.6144 46.9574C20.2389 47.6145 19.6756 47.9765 18.9112 48.0302C18.2272 48.0838 17.4895 47.8827 16.7117 47.4401C15.907 46.9842 15.3571 46.4613 15.0754 45.8579C14.7804 45.2008 14.8206 44.5169 15.2096 43.8197C15.518 43.2833 15.9472 42.9481 16.5239 42.8274C17.0738 42.7067 17.6505 42.8274 18.2808 43.1358L17.7712 44.0476H17.7578Z" fill="white"/>
<path d="M16.2299 40.9511L15.3179 40.3745L15.8946 39.4492L16.8066 40.0258L16.2299 40.9376V40.9511ZM22.4126 43.5524L21.8359 44.4643L16.8334 41.3265L17.4101 40.4013L22.4126 43.5524Z" fill="white"/>
<path d="M23.5116 41.8906L22.9081 42.789L16.5107 38.498L17.1143 37.5996L23.5116 41.8906Z" fill="white"/>
<path d="M26.2349 38.1491L25.5241 39.0073L19.5693 34.0996L21.514 31.7395C21.9298 31.2434 22.3589 30.935 22.8015 30.8143C23.3782 30.6668 23.9952 30.8545 24.6255 31.3775C25.0278 31.7127 25.2961 32.0479 25.4436 32.3832C25.5509 32.638 25.5777 32.8525 25.5375 33.0134C25.6314 32.9598 25.7655 32.933 25.9398 32.9598C26.2215 33 26.5568 33.1743 26.9457 33.4693L27.9516 34.2336C28.1259 34.3543 28.2466 34.408 28.3137 34.4348C28.4076 34.4616 28.5283 34.4348 28.7026 34.3811L29.0781 34.6896L28.2466 35.6953C28.0454 35.6282 27.737 35.4405 27.3346 35.1589C27.053 34.9443 26.7445 34.7164 26.4226 34.4482C26.1008 34.2202 25.8325 34.0996 25.6314 34.0861C25.4034 34.0861 25.1754 34.2202 24.9742 34.475L23.6733 36.0439L26.2215 38.1491H26.2349ZM22.9222 35.4137L24.0622 34.0325C24.3304 33.6973 24.478 33.4157 24.4914 33.1609C24.5182 32.8525 24.3304 32.5307 23.9549 32.2223C23.6062 31.9407 23.2843 31.8066 23.0027 31.8602C22.7747 31.9004 22.5467 32.0479 22.3321 32.3027L21.0446 33.8716L22.9222 35.4271V35.4137Z" fill="white"/>
<path d="M31.1836 29.6878C31.5725 30.184 31.7737 30.7069 31.7871 31.2433C31.7871 31.8735 31.5457 32.4501 31.036 32.9731C30.513 33.5095 29.8692 33.7106 29.1182 33.5497C28.4342 33.4156 27.7636 33.0267 27.1064 32.3831C26.4761 31.7797 26.114 31.1226 26.0201 30.4254C25.9128 29.7013 26.114 29.071 26.637 28.5481C27.1333 28.0385 27.7368 27.824 28.4342 27.9312C29.1718 28.0385 29.9363 28.4676 30.7276 29.2453L28.1391 31.9138C28.5549 32.3026 28.9438 32.5306 29.2925 32.6111C29.7083 32.7049 30.057 32.6111 30.3655 32.2892C30.6471 31.9942 30.7946 31.6992 30.7946 31.3908C30.7946 31.1092 30.6873 30.8008 30.4459 30.4522L31.197 29.6744L31.1836 29.6878ZM29.2255 29.3392C28.917 29.0442 28.5951 28.8833 28.2733 28.8565C27.9111 28.8431 27.5758 28.9906 27.2674 29.3124C26.9857 29.6074 26.865 29.9292 26.9053 30.2913C26.9455 30.6265 27.1064 30.9349 27.4015 31.2299L29.2255 29.3526V29.3392Z" fill="white"/>
<path d="M32.3109 25.986C32.0963 25.7446 31.8683 25.5971 31.6537 25.5569C31.3855 25.5166 31.1038 25.6239 30.8356 25.8653C30.6478 26.0396 30.5405 26.2005 30.5003 26.348C30.4601 26.5223 30.5137 26.7101 30.6747 26.8844C30.8222 27.0587 30.9697 27.1392 31.1172 27.1257C31.2648 27.1123 31.6135 26.9782 32.1499 26.7369C32.7937 26.4285 33.3033 26.2944 33.6788 26.3212C34.0544 26.348 34.4165 26.576 34.7786 26.9648C35.1541 27.3805 35.3151 27.8364 35.248 28.3058C35.1809 28.7751 34.9127 29.231 34.4433 29.6735C33.813 30.2367 33.196 30.4512 32.5791 30.3037C32.1499 30.2099 31.7476 29.9551 31.3721 29.5394L32.1768 28.8153C32.4182 29.0835 32.6462 29.2444 32.8473 29.2846C33.129 29.3517 33.4374 29.2444 33.7593 28.9494C34.0275 28.708 34.1885 28.4935 34.2287 28.3192C34.269 28.1448 34.1885 27.9437 34.0141 27.756C33.8264 27.5414 33.6386 27.4342 33.4643 27.4342C33.2363 27.4342 32.8876 27.5414 32.4182 27.7694C31.8012 28.051 31.3184 28.1851 30.9831 28.1851C30.5674 28.1851 30.1918 28.0108 29.87 27.6487C29.5213 27.2598 29.3871 26.8307 29.4542 26.3346C29.5213 25.8653 29.7627 25.4496 30.1784 25.0741C30.7685 24.5378 31.3721 24.3634 31.9756 24.5244C32.3779 24.6316 32.7534 24.873 33.1022 25.2485L32.2975 25.9726L32.3109 25.986Z" fill="white"/>
<path d="M38.4795 23.5595C38.8014 24.1092 38.9221 24.6456 38.8685 25.182C38.788 25.8122 38.4661 26.3486 37.8894 26.7911C37.2993 27.2604 36.6287 27.3543 35.9045 27.1129C35.2473 26.8849 34.6304 26.4156 34.0671 25.6915C33.5307 25.0076 33.2624 24.3104 33.249 23.5997C33.249 22.8622 33.5307 22.2722 34.1074 21.8163C34.6706 21.3738 35.301 21.2531 35.9716 21.4408C36.6824 21.6419 37.3798 22.1783 38.0638 23.0499L35.1266 25.3429C35.4888 25.7854 35.8375 26.067 36.1727 26.1877C36.5617 26.3352 36.9372 26.2815 37.2725 26.0133C37.5944 25.7586 37.7687 25.4904 37.8224 25.182C37.876 24.9004 37.7955 24.5785 37.5944 24.2031L38.4393 23.5326L38.4795 23.5595ZM36.5885 22.956C36.3203 22.6208 36.0252 22.4197 35.7033 22.3526C35.3546 22.2856 35.0059 22.3928 34.6438 22.661C34.3219 22.9158 34.161 23.2242 34.1476 23.5863C34.1476 23.9215 34.2549 24.2567 34.5097 24.5786L36.5751 22.9694L36.5885 22.956Z" fill="white"/>
<path d="M37.7267 21.5084C37.3914 20.9184 37.2976 20.3821 37.4585 19.8725C37.606 19.4166 37.9547 19.0009 38.518 18.612C38.8801 18.3707 39.2825 18.25 39.7251 18.25C40.3286 18.25 40.798 18.5182 41.1601 19.0546L42.9304 21.6962C42.9304 21.6962 43.0109 21.8034 43.0243 21.8034C43.0511 21.8168 43.0914 21.8034 43.1316 21.7766L43.2255 21.6693L43.4266 21.4682L43.9899 22.2996C43.8961 22.3934 43.8156 22.4605 43.7619 22.5141C43.6815 22.5812 43.601 22.6482 43.5339 22.6884C43.2523 22.8762 43.0109 22.9566 42.7829 22.9566C42.6354 22.9566 42.5281 22.903 42.4744 22.8359C42.4476 22.97 42.3805 23.131 42.2598 23.3187C42.0453 23.6539 41.7368 23.9623 41.321 24.2439C40.9321 24.5121 40.5163 24.5791 40.0738 24.4719C39.6312 24.3646 39.2556 24.083 38.9606 23.6405C38.7058 23.265 38.5717 22.9164 38.5448 22.608C38.5314 22.1521 38.7326 21.723 39.1618 21.3073C39.5105 20.9721 39.7519 20.7307 39.9128 20.5698C40.1006 20.3821 40.2213 20.248 40.2883 20.1407C40.3554 20.0468 40.3956 19.9664 40.3956 19.8993C40.3956 19.8457 40.3688 19.7921 40.3286 19.725C40.114 19.4032 39.9128 19.2289 39.7251 19.2021C39.5507 19.1752 39.2959 19.2825 38.9606 19.4971C38.5985 19.7384 38.3839 19.953 38.3437 20.1407C38.3034 20.3016 38.3839 20.5698 38.5717 20.9184L37.7267 21.4816V21.5084ZM41.0796 20.8916C41.0796 20.8916 41.0528 20.8916 40.9857 20.9453C40.9321 20.9855 40.8248 21.0928 40.637 21.2537L40.1676 21.6962C39.886 21.9644 39.7251 22.1789 39.6714 22.3532C39.6043 22.5544 39.6714 22.7689 39.8189 23.0237C39.9799 23.265 40.1408 23.4125 40.3017 23.4662C40.5163 23.5332 40.7712 23.4662 41.0796 23.265C41.3747 23.0639 41.5758 22.7957 41.6831 22.4739C41.777 22.1521 41.7502 21.8839 41.5893 21.6425L41.093 20.905L41.0796 20.8916Z" fill="white"/>
<path d="M42.3407 16.492L42.5419 16.8407C42.5419 16.7066 42.6224 16.5457 42.7699 16.3311C42.9979 16.0361 43.3332 15.7545 43.7892 15.4863L44.3256 16.3982C43.7892 16.7066 43.4539 17.0552 43.3332 17.4173C43.2393 17.7123 43.2795 18.0073 43.4673 18.3157L45.3315 21.5071L44.3927 22.0568L41.4556 17.0016L42.3541 16.4786L42.3407 16.492Z" fill="white"/>
<path d="M48.43 15.6216C48.1886 15.2595 47.9472 15.0316 47.7058 14.9109C47.4241 14.7768 47.1291 14.7902 46.8072 14.9511C46.4049 15.1522 46.2037 15.4472 46.1635 15.8227C46.1366 16.1848 46.2707 16.6407 46.5658 17.2173C46.9011 17.8743 47.223 18.3168 47.5314 18.5716C47.9338 18.8934 48.3495 18.9336 48.7787 18.7191C49.0872 18.5716 49.2481 18.3302 49.3018 18.0218C49.3554 17.7268 49.2749 17.3648 49.0872 16.9357L50.0662 16.4395C50.3345 17.0832 50.4283 17.6598 50.3345 18.1693C50.2272 18.7995 49.8516 19.2823 49.1811 19.6175C48.4971 19.9661 47.8265 19.9393 47.1693 19.5505C46.5792 19.2152 46.083 18.6386 45.6672 17.8341C45.2515 17.0161 45.0905 16.2652 45.1978 15.6082C45.3185 14.8975 45.7343 14.3611 46.4585 13.9991C47.0084 13.7175 47.5583 13.6906 48.0947 13.9186C48.6044 14.1331 49.0335 14.5354 49.3822 15.1522L48.4434 15.6216H48.43Z" fill="white"/>
<path d="M55.432 16.6137L54.4261 17.0294L52.9106 13.3955C52.7631 13.0603 52.6021 12.8323 52.4278 12.7385C52.2266 12.6312 51.9584 12.6312 51.6499 12.7653C51.3683 12.886 51.1403 13.1139 50.9928 13.4492C50.8452 13.7844 50.8318 14.0928 50.9391 14.3476L52.4144 17.8608L51.4085 18.2765L48.4312 11.1696L49.437 10.7539L50.3222 12.8592V12.8189C50.4429 12.6312 50.5502 12.4703 50.6709 12.3362C50.8855 12.0948 51.1269 11.9071 51.4085 11.7998C51.8913 11.5987 52.2937 11.5316 52.6424 11.6121C53.152 11.706 53.541 12.0814 53.8226 12.7251L55.4454 16.6003L55.432 16.6137Z" fill="white"/>
<path d="M64.5367 13.797L63.2358 14.159L62.4042 13.569C62.2165 13.9445 61.9751 14.2529 61.68 14.4942C61.3716 14.7624 60.996 14.9636 60.5534 15.0842C59.8695 15.272 59.2659 15.1781 58.7697 14.7758C58.4076 14.4808 58.1528 14.1054 58.0321 13.6629C57.898 13.1667 57.8711 12.7242 57.9516 12.3354C58.0589 11.9063 58.3271 11.4503 58.7563 10.9676C58.5283 10.7933 58.3137 10.5787 58.1125 10.3374C57.898 10.0558 57.7638 9.7742 57.6834 9.4926C57.5627 9.07692 57.6029 8.66123 57.7907 8.24555C58.0052 7.81645 58.3539 7.52145 58.8502 7.38736C59.333 7.25327 59.7622 7.32031 60.1377 7.5885C60.4998 7.82986 60.7412 8.16509 60.8619 8.6076C60.996 9.06351 60.996 9.4926 60.8887 9.88147C60.7949 10.2167 60.6071 10.5251 60.3523 10.7933L61.7337 11.7588L61.6934 11.6247C61.68 11.504 61.6532 11.3967 61.6398 11.3297C61.613 11.1822 61.5861 11.0615 61.5459 10.9408L62.6591 10.6324C62.7261 11.0347 62.7664 11.3699 62.7932 11.6515C62.82 11.9733 62.7932 12.2683 62.7529 12.5231L64.5501 13.797H64.5367ZM59.7756 9.58647C59.8426 9.35851 59.856 9.13055 59.7756 8.9026C59.7085 8.64782 59.6012 8.48691 59.4671 8.39305C59.3598 8.31259 59.2257 8.29918 59.0648 8.33941C58.8502 8.40646 58.7161 8.50032 58.6624 8.63441C58.6222 8.7551 58.6356 8.92942 58.7026 9.17078C58.7429 9.33169 58.8368 9.4926 58.9575 9.66692C59.0916 9.85465 59.2525 10.029 59.4403 10.1765C59.5878 9.97534 59.7085 9.78761 59.7622 9.59988L59.7756 9.58647ZM59.6146 11.571C59.3062 11.9331 59.105 12.2549 59.0379 12.5231C58.9709 12.7645 58.9709 13.0326 59.0648 13.3276C59.1586 13.6897 59.3196 13.9311 59.5342 14.0786C59.7353 14.2126 60.0036 14.2261 60.3389 14.1456C60.5803 14.0786 60.8083 13.9311 61.0228 13.6897C61.224 13.4617 61.385 13.207 61.4788 12.9388L59.6146 11.5844V11.571Z" fill="white"/>
<path d="M68.6805 13.0737L67.5942 13.2615L66.3066 5.65843L67.393 5.4707L68.6805 13.0603V13.0737Z" fill="white"/>
<path d="M74.2611 12.3764L73.1882 12.4971L72.759 8.60841C72.7187 8.19272 72.598 7.91113 72.4103 7.75022C72.2225 7.58931 71.9409 7.53567 71.5654 7.5759C71.2703 7.60272 70.9887 7.75022 70.7338 7.97817C70.4522 8.25977 70.3315 8.58159 70.3717 8.95704L70.8009 12.7519L69.728 12.8725L69.0708 6.97248L70.1437 6.8518L70.184 7.25408C70.3047 7.11998 70.4522 6.9993 70.5997 6.90544C70.9082 6.71771 71.2435 6.59702 71.6056 6.5568C72.1018 6.50316 72.5444 6.57021 72.9199 6.77134C73.4296 7.05294 73.738 7.56249 73.8051 8.27318L74.2611 12.3764Z" fill="white"/>
<path d="M79.3571 12.1615L78.2574 12.2017V11.9201C78.1903 12.0274 78.0428 12.1212 77.8282 12.2151C77.5466 12.3358 77.2381 12.4162 76.8894 12.4297C76.0981 12.4565 75.508 12.1346 75.1325 11.4642C74.8374 10.9412 74.6765 10.2037 74.6497 9.26508C74.6228 8.40689 74.7972 7.6962 75.1727 7.13301C75.5616 6.56983 76.0713 6.28823 76.7016 6.26141C76.943 6.26141 77.171 6.26141 77.3722 6.32846C77.5331 6.36869 77.6807 6.43573 77.8148 6.51619C77.9087 6.56983 77.9757 6.63687 78.0428 6.69051C78.1232 6.77096 78.1367 6.79778 78.0964 6.77096L78.016 4.4914L79.1157 4.45117L79.3705 12.1481L79.3571 12.1615ZM75.964 7.93757C75.7762 8.32643 75.6958 8.80916 75.7226 9.38576C75.736 9.94895 75.8567 10.4317 76.0713 10.8205C76.3127 11.263 76.6212 11.4642 77.0101 11.4642C77.399 11.4642 77.6941 11.2228 77.9087 10.7669C78.0964 10.3646 78.1769 9.8819 78.1635 9.31871C78.1501 8.75553 78.0294 8.2728 77.8148 7.89734C77.5734 7.46824 77.2515 7.2671 76.876 7.28051C76.487 7.28051 76.192 7.52188 75.9908 7.96438L75.964 7.93757Z" fill="white"/>
<path d="M83.2992 12.2951V12.0403C83.2992 12.0403 83.1115 12.161 82.8432 12.2414C82.4811 12.3621 82.119 12.4023 81.7301 12.3889C81.2204 12.3755 80.8181 12.2146 80.523 11.933C80.1609 11.5978 80 11.1151 80.0268 10.4714L80.2011 6.2207L81.2875 6.26093L81.1265 10.3776C81.1265 10.7664 81.1668 11.0212 81.2875 11.1687C81.4082 11.3162 81.6496 11.3832 82.0117 11.4101C82.4409 11.4235 82.7896 11.2894 83.0578 10.9944C83.2724 10.7664 83.3931 10.4714 83.3931 10.1496L83.5406 6.3548L84.627 6.39502L84.3856 12.3085L83.2992 12.2683V12.2951Z" fill="white"/>
<path d="M88.1413 8.71526C88.1816 8.39344 88.1413 8.13867 88.0206 7.93753C87.8731 7.70957 87.6049 7.57548 87.2427 7.53525C86.9879 7.50844 86.8002 7.53525 86.666 7.6023C86.5051 7.68276 86.4112 7.85707 86.3844 8.09844C86.3576 8.3264 86.3844 8.48731 86.5051 8.58117C86.6124 8.68845 86.9477 8.84936 87.4842 9.09072C88.1547 9.37232 88.5973 9.65391 88.8119 9.94891C89.0399 10.2439 89.1204 10.6596 89.0667 11.196C88.9997 11.7592 88.7717 12.1748 88.3827 12.443C87.9938 12.7112 87.4707 12.8185 86.8404 12.7648C86.0089 12.671 85.4322 12.3492 85.1237 11.7994C84.9091 11.4105 84.8287 10.9412 84.8823 10.3914L85.9686 10.5121C85.9284 10.8741 85.9686 11.1423 86.0625 11.3301C86.1966 11.5848 86.4917 11.7457 86.9209 11.786C87.283 11.8262 87.5512 11.7994 87.6987 11.7189C87.8463 11.6251 87.9401 11.4373 87.967 11.1826C87.9938 10.901 87.967 10.6998 87.8328 10.5523C87.6853 10.3914 87.3634 10.2037 86.8806 10.0025C86.2503 9.72095 85.8345 9.46618 85.6065 9.2114C85.3249 8.90299 85.2042 8.50072 85.2578 8.01799C85.3115 7.50844 85.5529 7.10616 85.9552 6.83798C86.3442 6.5832 86.8136 6.47593 87.3769 6.54297C88.1681 6.62343 88.7046 6.94525 88.9997 7.50844C89.2008 7.88389 89.2679 8.31299 89.2142 8.82254L88.1279 8.70185L88.1413 8.71526Z" fill="white"/>
<path d="M91.3867 8.23341L90.7831 12.055C90.7697 12.1623 90.7831 12.2294 90.8502 12.2696C90.8904 12.2964 90.9575 12.3232 91.0648 12.3366H91.105L91.5476 12.4171L91.4001 13.3691C91.2391 13.3557 91.0782 13.3423 90.9173 13.3155C90.8234 13.3155 90.7161 13.2887 90.6088 13.2753C90.2735 13.2216 90.0321 13.0741 89.8846 12.8462C89.737 12.5914 89.6968 12.2562 89.7639 11.8137L90.3674 8.05909L89.7236 7.95182L89.8846 6.97294L90.5283 7.08022L90.7697 5.5918L91.8292 5.76612L91.5878 7.25454L92.3791 7.37522L92.2182 8.35409L91.4269 8.23341H91.3867Z" fill="white"/>
<path d="M94.3504 7.85713L94.2699 8.2594C94.3504 8.16554 94.5247 8.08508 94.7795 8.03145C95.1417 7.9644 95.5842 7.97781 96.0939 8.08508L95.8793 9.11759C95.2758 8.99691 94.793 9.02373 94.4711 9.21146C94.2029 9.35896 94.0419 9.61373 93.9614 9.96237L93.2104 13.5829L92.1509 13.3683L93.3445 7.64258L94.3638 7.85713H94.3504Z" fill="white"/>
<path d="M99.9977 9.14425L101.044 9.42584L99.6892 11.4372L97.7848 14.3068C97.4093 14.8834 97.0337 15.2454 96.6448 15.4332C96.2961 15.5807 95.8803 15.6075 95.3841 15.5002C95.3037 15.4734 95.2366 15.4466 95.1695 15.4198C95.1159 15.4063 95.0622 15.3661 94.9818 15.3259L94.8477 15.2588L95.1159 14.28C95.2366 14.347 95.3439 14.4007 95.4244 14.4409C95.5316 14.4945 95.6523 14.5347 95.7999 14.575C96.001 14.6286 96.1754 14.6286 96.3095 14.5616C96.457 14.4811 96.618 14.3202 96.7789 14.0654L96.4705 8.23242L97.4629 8.50061L97.6775 12.8184L100.011 9.18448L99.9977 9.14425Z" fill="white"/>
<path d="M104.424 14.5073L102.922 16.2907L101.809 15.8482L107.173 9.69336L108.085 10.0554L107.696 18.2082L106.597 17.7657L106.757 15.4459L104.424 14.5073ZM106.825 14.3866L106.999 11.4902L105.094 13.7027L106.811 14.3866H106.825Z" fill="white"/>
<path d="M112.429 16.4249C112.563 16.0092 112.617 15.674 112.563 15.4192C112.509 15.1108 112.322 14.8828 111.986 14.7219C111.584 14.5208 111.222 14.5342 110.9 14.7219C110.592 14.9097 110.31 15.2985 110.015 15.8751C109.693 16.5322 109.519 17.0551 109.505 17.4574C109.492 17.967 109.693 18.329 110.136 18.5436C110.444 18.6911 110.726 18.6911 111.007 18.5436C111.276 18.4095 111.517 18.1279 111.758 17.7256L112.737 18.2083C112.375 18.8117 111.973 19.2274 111.517 19.4554C110.954 19.7504 110.337 19.7236 109.666 19.4018C108.982 19.0665 108.593 18.5167 108.513 17.7524C108.432 17.082 108.593 16.331 108.996 15.5265C109.411 14.6951 109.908 14.1319 110.498 13.8101C111.141 13.4749 111.825 13.4883 112.536 13.8503C113.1 14.1319 113.448 14.5476 113.582 15.1108C113.73 15.6472 113.649 16.2372 113.368 16.8808L112.429 16.4115V16.4249Z" fill="white"/>
<path d="M114.094 16.8284C114.469 16.2652 114.925 15.9568 115.449 15.8897C115.918 15.8227 116.454 15.9568 117.031 16.3054C117.407 16.5334 117.702 16.8418 117.876 17.2441C118.131 17.7804 118.104 18.3302 117.769 18.8934L116.159 21.6289C116.119 21.6959 116.106 21.7362 116.106 21.763C116.106 21.7898 116.132 21.8166 116.173 21.8568L116.307 21.8971L116.588 21.9909L116.079 22.8491C115.958 22.7955 115.864 22.7553 115.797 22.7418C115.703 22.7016 115.609 22.6614 115.529 22.6078C115.247 22.4334 115.06 22.2591 114.966 22.0446C114.899 21.8971 114.899 21.7898 114.939 21.7093C114.805 21.7496 114.63 21.7496 114.402 21.7228C114 21.6825 113.584 21.535 113.155 21.2802C112.753 21.0389 112.498 20.7037 112.404 20.2611C112.31 19.8186 112.404 19.3493 112.672 18.8934C112.9 18.5045 113.155 18.2229 113.423 18.0754C113.826 17.8609 114.295 17.8609 114.858 18.0754C115.314 18.2364 115.636 18.357 115.851 18.4241C116.092 18.5045 116.28 18.5582 116.401 18.5716C116.521 18.5984 116.602 18.585 116.669 18.5716C116.709 18.5448 116.749 18.5045 116.803 18.4375C116.991 18.1023 117.071 17.8475 117.018 17.6732C116.964 17.5123 116.763 17.3245 116.428 17.1234C116.052 16.8954 115.77 16.815 115.583 16.8552C115.408 16.8954 115.221 17.0698 114.979 17.3916L114.107 16.882L114.094 16.8284ZM116.106 19.5907C116.106 19.5907 116.106 19.5639 116.012 19.5236C115.945 19.4968 115.811 19.4432 115.583 19.3493L114.979 19.1214C114.617 18.9873 114.349 18.9336 114.174 18.9605C113.96 18.9873 113.785 19.1348 113.638 19.3895C113.49 19.6443 113.423 19.8455 113.437 20.0198C113.464 20.2343 113.638 20.4355 113.96 20.6232C114.268 20.8109 114.59 20.8646 114.939 20.8243C115.261 20.7707 115.502 20.6232 115.65 20.3818L116.106 19.6175V19.5907Z" fill="white"/>
<path d="M119.969 25.4638L119.07 24.8336L119.231 24.6056C119.124 24.6458 118.95 24.6458 118.708 24.6056C118.413 24.5386 118.118 24.4045 117.836 24.2168C117.193 23.7608 116.911 23.1574 117.005 22.3931C117.085 21.7897 117.394 21.1192 117.93 20.3415C118.427 19.6308 118.99 19.1615 119.62 18.9469C120.264 18.7324 120.841 18.7994 121.364 19.1615C121.565 19.2956 121.726 19.4431 121.86 19.6174C121.967 19.7515 122.048 19.8856 122.115 20.0331C122.155 20.1404 122.182 20.2208 122.182 20.3147C122.195 20.4219 122.182 20.4488 122.182 20.4085L123.483 18.5312L124.381 19.1615L119.982 25.4906L119.969 25.4638ZM119.781 20.0465C119.392 20.2476 119.043 20.5829 118.722 21.0522C118.4 21.5215 118.199 21.9774 118.145 22.4065C118.078 22.9027 118.199 23.2513 118.52 23.4792C118.842 23.6938 119.218 23.6938 119.66 23.4524C120.049 23.2513 120.411 22.9027 120.733 22.4333C121.055 21.964 121.243 21.5215 121.297 21.079C121.35 20.5963 121.23 20.2342 120.908 20.0197C120.586 19.8051 120.21 19.8051 119.795 20.0197L119.781 20.0465Z" fill="white"/>
<path d="M125.292 27.1805C124.836 27.6096 124.327 27.8644 123.79 27.9314C123.16 27.9985 122.57 27.7973 121.993 27.3414C121.403 26.8721 121.162 26.2553 121.242 25.4775C121.323 24.7803 121.644 24.083 122.208 23.3723C122.758 22.6884 123.375 22.2727 124.059 22.1118C124.769 21.9375 125.413 22.085 125.99 22.5543C126.553 23.0102 126.808 23.5868 126.768 24.2841C126.727 25.0216 126.365 25.8262 125.668 26.6844L122.771 24.3378C122.422 24.7937 122.235 25.196 122.181 25.558C122.127 25.9737 122.261 26.3223 122.61 26.5905C122.919 26.8453 123.24 26.966 123.535 26.9391C123.817 26.9257 124.112 26.7782 124.434 26.4966L125.279 27.1805H125.292ZM125.467 25.196C125.735 24.8607 125.869 24.5255 125.856 24.2037C125.856 23.8416 125.668 23.5332 125.319 23.2516C125.011 22.9968 124.675 22.903 124.313 22.9834C123.978 23.0505 123.683 23.2382 123.428 23.56L125.467 25.2094V25.196Z" fill="white"/>
<path d="M128.564 24.7536L129.342 25.518L129.114 25.7459C129.114 25.7459 129.061 25.7459 129.074 25.7459H129.114C129.302 25.7593 129.463 25.7996 129.624 25.8398C129.892 25.9202 130.134 26.0677 130.335 26.2555C130.63 26.5505 130.818 26.8321 130.911 27.1137C130.978 27.3416 130.978 27.5428 130.911 27.7305C131.086 27.6903 131.287 27.7171 131.528 27.7841C131.864 27.878 132.159 28.0523 132.427 28.3071C132.749 28.6155 132.937 28.9775 132.99 29.3664C133.057 29.876 132.869 30.3587 132.413 30.828L129.436 33.8719L128.658 33.1076L131.501 30.1978C131.77 29.9296 131.904 29.6882 131.917 29.4871C131.917 29.2994 131.823 29.0848 131.582 28.8569C131.367 28.6423 131.126 28.5619 130.858 28.5887C130.603 28.6155 130.375 28.7362 130.174 28.9373L127.357 31.8203L126.566 31.056L129.517 28.0389C129.718 27.8244 129.825 27.6366 129.838 27.4623C129.852 27.2746 129.771 27.0868 129.57 26.8991C129.356 26.6846 129.074 26.5907 128.739 26.6041C128.403 26.6041 128.135 26.7382 127.921 26.9528L125.211 29.7285L124.434 28.9775L128.578 24.7402L128.564 24.7536Z" fill="white"/>
<path d="M130.617 35.3197L129.893 34.5017L134.319 30.5728L135.043 31.3908L130.617 35.3197ZM134.855 30.1169L135.66 29.4062L136.384 30.2108L135.58 30.9349L134.855 30.1169Z" fill="white"/>
<path d="M136.075 36.0976C136.37 35.7758 136.558 35.4942 136.625 35.2394C136.705 34.9444 136.625 34.6494 136.397 34.3678C136.115 34.0192 135.793 33.8717 135.418 33.9253C135.069 33.979 134.64 34.2069 134.13 34.6092C133.553 35.0651 133.178 35.4808 133.004 35.8294C132.776 36.2854 132.816 36.701 133.124 37.0899C133.339 37.3581 133.594 37.4788 133.902 37.452C134.197 37.4385 134.546 37.291 134.921 37.0229L135.605 37.8676C135.029 38.2699 134.479 38.4711 133.969 38.4845C133.339 38.5113 132.789 38.2431 132.32 37.6531C131.837 37.0631 131.73 36.406 131.958 35.6685C132.172 35.0249 132.628 34.4081 133.326 33.8449C134.05 33.2683 134.734 32.9599 135.404 32.9196C136.129 32.8928 136.745 33.1878 137.242 33.8181C137.631 34.3008 137.778 34.8372 137.671 35.4003C137.577 35.9501 137.255 36.4463 136.732 36.9156L136.075 36.0976Z" fill="white"/>
<path d="M142.511 42.9888C143.008 42.5597 143.289 42.1037 143.329 41.6478C143.356 41.3126 143.262 40.9774 143.061 40.6421C142.739 40.1192 142.257 39.8376 141.64 39.7571C140.956 39.6901 140.218 39.918 139.427 40.4142C138.609 40.9237 138.059 41.4601 137.777 42.0367C137.482 42.6401 137.509 43.2167 137.858 43.7933C138.086 44.1554 138.394 44.3967 138.796 44.4906C139.293 44.6113 139.896 44.5174 140.634 44.209L141.224 45.161C140.07 45.684 139.078 45.7645 138.26 45.4024C137.764 45.1879 137.348 44.8124 136.999 44.2626C136.557 43.5519 136.463 42.801 136.691 41.9697C136.959 41.0176 137.656 40.1862 138.796 39.4755C139.816 38.8453 140.768 38.5637 141.653 38.6308C142.605 38.7112 143.356 39.2074 143.906 40.0924C144.376 40.8433 144.51 41.554 144.335 42.2378C144.161 42.8413 143.745 43.391 143.088 43.914L142.498 42.9753L142.511 42.9888Z" fill="white"/>
<path d="M143.745 45.1342C144.469 45.2549 145.005 45.6572 145.354 46.3276C145.716 47.0249 145.743 47.6954 145.435 48.3256C145.14 48.929 144.549 49.4654 143.691 49.8945C142.886 50.3102 142.149 50.4711 141.492 50.3906C140.727 50.2968 140.164 49.8945 139.788 49.157C139.426 48.4597 139.44 47.7624 139.815 47.0786C140.15 46.4617 140.7 45.9656 141.478 45.5633C142.283 45.1476 143.034 45.0001 143.731 45.1208L143.745 45.1342ZM140.741 47.5211C140.472 47.8965 140.445 48.2988 140.66 48.7145C140.888 49.157 141.25 49.3849 141.733 49.3849C142.135 49.3849 142.645 49.224 143.262 48.9156C143.812 48.634 144.201 48.339 144.415 48.0172C144.67 47.6283 144.684 47.2126 144.456 46.7701C144.241 46.341 143.906 46.1265 143.436 46.1131C143.061 46.1131 142.591 46.2606 142.028 46.5422C141.411 46.864 140.982 47.1858 140.741 47.5211Z" fill="white"/>
<path d="M146.322 50.3511C147.046 50.5254 147.543 50.9679 147.838 51.6652C148.133 52.3893 148.119 53.0597 147.757 53.6631C147.409 54.2397 146.792 54.7225 145.893 55.0979C145.062 55.4466 144.31 55.5538 143.653 55.4198C142.902 55.2723 142.366 54.8163 142.057 54.0654C141.762 53.3413 141.816 52.644 142.259 51.987C142.647 51.4104 143.238 50.9411 144.042 50.6193C144.874 50.2706 145.638 50.1768 146.322 50.3511ZM143.144 52.4831C142.849 52.8452 142.782 53.2341 142.956 53.6631C143.144 54.1325 143.492 54.3738 143.975 54.4141C144.378 54.4409 144.901 54.3336 145.531 54.0654C146.108 53.8241 146.51 53.5559 146.751 53.2609C147.033 52.8988 147.087 52.4831 146.899 52.0272C146.711 51.5847 146.389 51.3434 145.933 51.2897C145.558 51.2629 145.075 51.3702 144.498 51.6115C143.855 51.8797 143.412 52.1613 143.144 52.4831Z" fill="white"/>
<path d="M149.031 55.0312L149.366 56.0638L149.085 56.1576H149.058C149.058 56.1576 149.085 56.1844 149.125 56.2113C149.273 56.3453 149.407 56.4794 149.514 56.6269C149.715 56.8683 149.849 57.1365 149.957 57.4315C150.158 58.0751 150.091 58.6651 149.729 59.1881C149.34 59.7781 148.642 60.234 147.65 60.5558C146.778 60.8374 146.027 60.8777 145.397 60.6631C144.726 60.4486 144.257 59.9658 144.029 59.2283C143.921 58.9199 143.895 58.6115 143.908 58.2897C143.921 58.0215 143.962 57.8472 144.029 57.7801L142.392 58.3165L142.057 57.284L149.018 55.0312H149.031ZM145.048 57.941C144.874 58.236 144.847 58.5579 144.954 58.8931C145.088 59.2954 145.343 59.5502 145.718 59.6574C146.121 59.7781 146.671 59.7379 147.355 59.5099C147.985 59.3088 148.441 59.0674 148.709 58.7858C149.031 58.4506 149.112 58.0483 148.964 57.579C148.817 57.1231 148.522 56.8683 148.079 56.7879C147.663 56.7074 147.127 56.7879 146.443 57.0024C145.745 57.2304 145.276 57.5388 145.048 57.941Z" fill="white"/>
<path d="M148.024 65.9185C147.394 65.9856 146.844 65.8783 146.388 65.5967C145.851 65.2749 145.489 64.7519 145.328 64.0412C145.154 63.3037 145.328 62.6601 145.865 62.1103C146.348 61.6007 147.032 61.2387 147.917 61.0241C148.762 60.823 149.513 60.8632 150.157 61.1448C150.827 61.4398 151.256 61.9494 151.417 62.6735C151.592 63.3708 151.444 63.9876 150.988 64.524C150.519 65.0871 149.727 65.5028 148.654 65.7576L147.783 62.1371C147.233 62.2846 146.83 62.4858 146.576 62.7405C146.281 63.0355 146.173 63.3976 146.281 63.8267C146.374 64.2155 146.549 64.4971 146.804 64.6715C147.032 64.8324 147.367 64.8994 147.783 64.8726L148.037 65.9185H148.024ZM149.365 64.4435C149.781 64.3362 150.089 64.1485 150.277 63.8937C150.478 63.5987 150.532 63.2367 150.438 62.8076C150.344 62.4187 150.13 62.1371 149.808 61.9762C149.499 61.8287 149.151 61.8019 148.762 61.8957L149.379 64.4435H149.365Z" fill="white"/>
<path d="M152.102 66.9778L151.7 67.0449C151.821 67.0851 151.955 67.2192 152.102 67.4337C152.303 67.7421 152.451 68.1578 152.545 68.6674L151.512 68.8417C151.405 68.2249 151.204 67.8092 150.895 67.5678C150.654 67.3801 150.359 67.3131 150.01 67.3801L146.362 68.0237L146.174 66.951L151.928 65.9453L152.116 66.9778H152.102Z" fill="white"/>
<path d="M150.839 69.7273C151.523 69.7005 152.033 69.8748 152.408 70.2502C152.744 70.5855 152.958 71.095 153.025 71.7655C153.079 72.1946 152.998 72.6103 152.784 72.9991C152.502 73.5221 152.046 73.8305 151.402 73.8976L148.237 74.2462C148.157 74.2462 148.117 74.2596 148.09 74.2864C148.063 74.2998 148.063 74.3401 148.063 74.3937L148.117 74.5278L148.211 74.8094L147.218 74.9167C147.191 74.7826 147.151 74.6887 147.138 74.6217C147.111 74.5144 147.097 74.4205 147.084 74.3266C147.044 73.9914 147.084 73.7366 147.191 73.5355C147.272 73.4014 147.352 73.3344 147.446 73.3075C147.339 73.2271 147.231 73.0796 147.111 72.8919C146.91 72.5432 146.775 72.1275 146.722 71.6314C146.668 71.1621 146.789 70.7598 147.084 70.4112C147.392 70.0625 147.808 69.8614 148.345 69.8077C148.801 69.7541 149.176 69.8077 149.458 69.9284C149.874 70.1162 150.155 70.505 150.33 71.0682C150.464 71.5241 150.571 71.8594 150.638 72.0739C150.718 72.3153 150.786 72.503 150.853 72.6103C150.906 72.7175 150.96 72.7846 151.014 72.8248C151.054 72.8382 151.121 72.8516 151.201 72.8382C151.59 72.798 151.832 72.7041 151.939 72.5566C152.046 72.4091 152.073 72.1409 152.019 71.7521C151.966 71.323 151.872 71.0414 151.724 70.9073C151.59 70.8 151.335 70.7464 150.933 70.7464L150.826 69.7407L150.839 69.7273ZM149.833 72.9857C149.833 72.9857 149.833 72.9589 149.833 72.8785C149.82 72.8114 149.78 72.6639 149.713 72.4225L149.538 71.7923C149.431 71.4169 149.31 71.1755 149.19 71.0548C149.042 70.9073 148.814 70.8537 148.519 70.8805C148.224 70.9073 148.023 70.9878 147.902 71.095C147.741 71.2559 147.687 71.5107 147.728 71.8728C147.768 72.2348 147.915 72.5298 148.157 72.7712C148.398 72.9991 148.653 73.1064 148.935 73.0662L149.82 72.9723L149.833 72.9857Z" fill="white"/>
<path d="M152.25 76.3381L148.388 76.5393C148.28 76.5393 148.213 76.5795 148.186 76.6465C148.173 76.6868 148.16 76.7672 148.173 76.8745V76.9147L148.2 77.3572L147.234 77.4108C147.207 77.2499 147.194 77.089 147.181 76.9147C147.181 76.8208 147.154 76.7136 147.154 76.6063C147.14 76.2711 147.221 76.0029 147.422 75.8017C147.637 75.6006 147.958 75.4933 148.401 75.4665L152.197 75.2654L152.156 74.6083L153.149 74.5547L153.189 75.2117L154.704 75.1313L154.758 76.204L153.243 76.2845L153.283 77.089L152.29 77.1427L152.25 76.3381Z" fill="white"/>
<path d="M147.408 79.1932V78.107L153.295 77.9997V79.0859L147.408 79.1932ZM154.02 77.9863H155.106L155.119 79.0591H154.046L154.033 77.9863H154.02Z" fill="white"/>
<path d="M152.61 80.7094C153.187 81.1653 153.468 81.7821 153.441 82.533C153.415 83.3108 153.106 83.9142 152.543 84.3165C151.993 84.7053 151.215 84.8796 150.249 84.8394C149.351 84.7992 148.627 84.5846 148.077 84.1958C147.46 83.7533 147.165 83.1096 147.192 82.2917C147.218 81.5005 147.567 80.9105 148.238 80.4948C148.828 80.1194 149.552 79.9585 150.424 79.9853C151.322 80.0121 152.06 80.2535 152.61 80.696V80.7094ZM148.814 81.3262C148.399 81.5273 148.171 81.8626 148.157 82.3185C148.144 82.828 148.345 83.1901 148.761 83.4315C149.109 83.6326 149.633 83.7399 150.33 83.7667C150.947 83.7935 151.43 83.713 151.765 83.5521C152.181 83.3376 152.395 82.9889 152.409 82.4794C152.422 81.9967 152.234 81.648 151.845 81.4067C151.51 81.2189 151.027 81.1251 150.41 81.0982C149.713 81.0714 149.19 81.1519 148.814 81.3262Z" fill="white"/>
<path d="M146.697 89.9757L146.831 88.9029L150.707 89.3454C151.123 89.3991 151.431 89.3454 151.619 89.2113C151.82 89.0638 151.928 88.7957 151.981 88.4202C152.021 88.1252 151.941 87.8168 151.767 87.5218C151.552 87.1866 151.27 86.9988 150.895 86.9586L147.099 86.5161L147.22 85.4434L153.121 86.1272L153 87.2134L152.598 87.1597C152.692 87.3072 152.772 87.4681 152.839 87.6425C152.96 87.9911 153 88.3397 152.96 88.7018C152.907 89.1979 152.732 89.6136 152.451 89.9354C152.062 90.3779 151.498 90.5523 150.788 90.4718L146.684 90.0025L146.697 89.9757Z" fill="white"/>
<path d="M147.932 95.326L145.947 94.0924L146.228 92.9258L153.082 97.3642L152.854 98.3163L144.74 99.094L145.021 97.9408L147.355 97.7665L147.945 95.326H147.932ZM148.388 97.686L151.285 97.4447L148.83 95.8758L148.388 97.6726V97.686Z" fill="white"/>
<path d="M143.25 103.478L143.599 102.432L143.867 102.526C143.8 102.432 143.746 102.257 143.733 102.029C143.706 101.734 143.76 101.413 143.867 101.077C144.122 100.326 144.618 99.884 145.382 99.7633C145.973 99.6694 146.724 99.7633 147.609 100.072C148.427 100.34 149.03 100.756 149.433 101.292C149.822 101.842 149.916 102.418 149.714 103.022C149.634 103.25 149.54 103.451 149.419 103.625C149.325 103.759 149.218 103.88 149.097 103.987C149.017 104.054 148.937 104.108 148.856 104.135C148.762 104.175 148.735 104.188 148.762 104.162L150.921 104.886L150.573 105.932L143.263 103.491L143.25 103.478ZM148.387 101.775C148.078 101.466 147.662 101.225 147.126 101.051C146.589 100.876 146.093 100.809 145.664 100.876C145.168 100.943 144.859 101.171 144.739 101.533C144.618 101.895 144.739 102.257 145.087 102.619C145.396 102.941 145.825 103.183 146.361 103.37C146.898 103.545 147.381 103.598 147.823 103.531C148.306 103.451 148.601 103.223 148.735 102.861C148.856 102.499 148.735 102.137 148.413 101.788L148.387 101.775Z" fill="white"/>
<path d="M148.495 106.521L148.052 107.514L147.757 107.38C147.757 107.38 147.73 107.339 147.73 107.353V107.393C147.797 107.567 147.824 107.742 147.838 107.902C147.851 108.184 147.811 108.452 147.69 108.72C147.529 109.096 147.328 109.377 147.086 109.552C146.899 109.686 146.711 109.766 146.523 109.78C146.617 109.927 146.671 110.115 146.698 110.37C146.724 110.718 146.671 111.054 146.523 111.389C146.335 111.805 146.067 112.1 145.719 112.287C145.263 112.529 144.739 112.529 144.149 112.26L140.247 110.544L140.689 109.552L144.404 111.188C144.753 111.349 145.021 111.389 145.209 111.335C145.397 111.282 145.544 111.094 145.678 110.799C145.799 110.531 145.799 110.263 145.678 110.021C145.571 109.793 145.383 109.619 145.115 109.498L141.427 107.862L141.869 106.857L145.732 108.56C146 108.68 146.215 108.707 146.389 108.653C146.563 108.6 146.711 108.452 146.818 108.211C146.939 107.929 146.939 107.634 146.805 107.326C146.671 107.017 146.47 106.803 146.188 106.682L142.634 105.113L143.076 104.121L148.495 106.508V106.521Z" fill="white"/>
<path d="M139.321 112.142L139.83 111.189L145.047 113.952L144.538 114.904L139.307 112.142H139.321ZM145.678 114.287L146.63 114.797L146.12 115.749L145.168 115.239L145.678 114.274V114.287Z" fill="white"/>
<path d="M136.531 116.888L137.095 115.963L140.434 117.988C140.796 118.203 141.091 118.283 141.333 118.243C141.574 118.189 141.789 118.001 141.99 117.68C142.151 117.425 142.204 117.116 142.164 116.768C142.11 116.365 141.923 116.084 141.601 115.883L138.328 113.912L138.892 112.986L143.975 116.057L143.411 116.982L143.063 116.768C143.089 116.955 143.089 117.13 143.076 117.317C143.036 117.68 142.929 118.015 142.741 118.323C142.486 118.752 142.151 119.061 141.762 119.235C141.225 119.476 140.649 119.396 140.032 119.034L136.504 116.902L136.531 116.888Z" fill="white"/>
<path d="M135.39 118.537L136.007 117.639L140.888 120.964L140.271 121.863L135.39 118.537ZM141.479 121.38L142.364 121.997L141.747 122.895L140.862 122.292L141.479 121.393V121.38Z" fill="white"/>
<path d="M136.478 123.82C136.746 124.021 136.987 124.115 137.202 124.115C137.47 124.102 137.725 123.941 137.94 123.646C138.087 123.445 138.181 123.257 138.181 123.11C138.181 122.935 138.1 122.761 137.899 122.613C137.712 122.479 137.564 122.426 137.43 122.466C137.282 122.506 136.96 122.707 136.491 123.043C135.914 123.472 135.445 123.7 135.069 123.74C134.694 123.78 134.292 123.633 133.876 123.311C133.42 122.975 133.178 122.56 133.152 122.077C133.125 121.608 133.299 121.112 133.675 120.589C134.184 119.918 134.748 119.596 135.378 119.61C135.821 119.61 136.263 119.798 136.706 120.133L136.049 121.004C135.753 120.79 135.512 120.669 135.297 120.669C135.002 120.669 134.721 120.817 134.466 121.179C134.251 121.474 134.131 121.715 134.131 121.889C134.131 122.077 134.238 122.251 134.453 122.412C134.681 122.587 134.882 122.654 135.056 122.627C135.271 122.587 135.593 122.412 136.008 122.09C136.572 121.702 137.014 121.474 137.336 121.407C137.752 121.326 138.141 121.42 138.543 121.715C138.959 122.023 139.173 122.426 139.2 122.922C139.227 123.391 139.066 123.847 138.731 124.29C138.261 124.92 137.698 125.215 137.068 125.175C136.652 125.161 136.236 124.987 135.821 124.678L136.478 123.82Z" fill="white"/>
<path d="M135.188 126.891L132.224 124.41C132.144 124.343 132.077 124.329 132.01 124.356C131.969 124.37 131.916 124.423 131.835 124.504L131.808 124.531L131.527 124.866L130.789 124.249C130.883 124.115 130.977 123.981 131.084 123.847C131.138 123.766 131.205 123.686 131.285 123.605C131.5 123.337 131.755 123.203 132.023 123.203C132.318 123.203 132.626 123.337 132.975 123.632L135.885 126.073L136.315 125.563L137.079 126.207L136.663 126.716L137.817 127.682L137.133 128.5L135.966 127.534L135.443 128.151L134.678 127.507L135.201 126.891H135.188Z" fill="white"/>
<path d="M133.983 129.626L133.688 129.358C133.728 129.479 133.702 129.667 133.621 129.908C133.5 130.257 133.259 130.619 132.897 131.007L132.119 130.297C132.535 129.841 132.749 129.425 132.763 129.036C132.763 128.728 132.642 128.46 132.374 128.218L129.651 125.711L130.389 124.906L134.681 128.875L133.97 129.64L133.983 129.626Z" fill="white"/>
<path d="M131.033 130.297C131.462 130.82 131.65 131.33 131.57 131.853C131.503 132.322 131.234 132.805 130.738 133.274C130.416 133.569 130.041 133.77 129.612 133.837C129.021 133.945 128.512 133.757 128.056 133.288L125.856 130.995C125.856 130.995 125.762 130.901 125.736 130.901C125.709 130.901 125.669 130.901 125.628 130.955L125.561 131.075L125.4 131.317L124.716 130.592C124.797 130.485 124.864 130.405 124.904 130.351C124.971 130.271 125.038 130.204 125.105 130.137C125.347 129.909 125.575 129.775 125.803 129.748C125.95 129.734 126.071 129.748 126.138 129.815C126.138 129.681 126.178 129.506 126.272 129.292C126.42 128.916 126.674 128.568 127.037 128.219C127.372 127.897 127.774 127.75 128.23 127.777C128.686 127.803 129.102 128.018 129.477 128.407C129.799 128.742 129.987 129.05 130.068 129.359C130.161 129.801 130.041 130.257 129.692 130.74C129.41 131.129 129.209 131.41 129.075 131.598C128.928 131.813 128.834 131.974 128.78 132.081C128.726 132.188 128.7 132.269 128.713 132.336C128.713 132.376 128.753 132.43 128.82 132.497C129.088 132.778 129.316 132.912 129.504 132.912C129.679 132.912 129.907 132.765 130.202 132.497C130.524 132.202 130.684 131.947 130.698 131.746C130.698 131.571 130.591 131.33 130.349 131.022L131.073 130.324L131.033 130.297ZM127.828 131.491C127.828 131.491 127.855 131.491 127.908 131.424C127.949 131.37 128.042 131.25 128.19 131.048L128.579 130.525C128.807 130.204 128.928 129.962 128.954 129.801C128.981 129.6 128.901 129.386 128.686 129.171C128.485 128.957 128.297 128.836 128.136 128.809C127.922 128.782 127.68 128.889 127.412 129.144C127.157 129.399 126.996 129.694 126.956 130.029C126.916 130.351 126.996 130.619 127.197 130.834L127.814 131.477L127.828 131.491Z" fill="white"/>
<path d="M126.564 135.499L124.056 132.549C123.989 132.468 123.922 132.441 123.842 132.455C123.802 132.455 123.735 132.508 123.654 132.575L123.627 132.602L123.292 132.884L122.662 132.146C122.782 132.026 122.89 131.918 123.01 131.811C123.077 131.744 123.158 131.677 123.238 131.597C123.493 131.382 123.761 131.288 124.03 131.315C124.325 131.369 124.606 131.556 124.901 131.892L127.369 134.775L127.865 134.345L128.509 135.096L128.013 135.526L128.992 136.679L128.174 137.363L127.195 136.209L126.578 136.732L125.934 135.981L126.551 135.458L126.564 135.499Z" fill="white"/>
<path d="M125.023 137.108C125.023 137.846 124.728 138.449 124.125 138.905C123.494 139.374 122.85 139.522 122.166 139.334C121.509 139.147 120.892 138.664 120.316 137.886C119.766 137.162 119.484 136.465 119.444 135.794C119.404 135.03 119.712 134.4 120.356 133.904C120.986 133.434 121.67 133.327 122.408 133.582C123.065 133.81 123.655 134.266 124.178 134.963C124.728 135.687 124.996 136.398 125.01 137.108H125.023ZM122.153 134.574C121.737 134.373 121.335 134.413 120.973 134.695C120.57 135.003 120.41 135.392 120.49 135.861C120.557 136.264 120.798 136.733 121.214 137.283C121.59 137.779 121.952 138.101 122.301 138.262C122.716 138.449 123.132 138.396 123.534 138.087C123.91 137.806 124.071 137.43 124.004 136.974C123.937 136.599 123.709 136.17 123.333 135.66C122.918 135.11 122.515 134.748 122.153 134.561V134.574Z" fill="white"/>
<path d="M120.235 141.385L120.021 141.05C120.021 141.184 119.954 141.345 119.82 141.573C119.618 141.881 119.297 142.176 118.854 142.471L118.277 141.586C118.8 141.251 119.109 140.889 119.203 140.514C119.283 140.219 119.229 139.924 119.028 139.615L116.99 136.518L117.902 135.928L121.107 140.809L120.235 141.385Z" fill="white"/>
<path d="M51.1661 151.967L49.1812 151.257L53.3119 139.832L55.2968 140.543L53.607 145.209L58.8911 141.843L61.4393 142.769L55.8869 146.067L57.5366 154.274L54.975 153.349L53.902 147.288L52.5475 148.106L51.1527 151.967H51.1661Z" fill="white"/>
<path d="M71.3386 152.785C71.0703 154.314 70.4936 155.4 69.6219 156.03C68.8038 156.634 67.7443 156.821 66.4702 156.593C65.8935 156.486 65.3704 156.285 64.9144 155.99C64.3109 155.628 63.8549 155.145 63.5733 154.542C63.3721 154.126 63.2514 153.657 63.2112 153.147C63.1575 152.651 63.1977 152.115 63.305 151.511L64.7267 143.613L66.8591 144.002L65.4777 151.726C65.3302 152.517 65.3972 153.147 65.6789 153.617C65.9203 154.059 66.3226 154.327 66.8725 154.435C67.5565 154.555 68.093 154.448 68.4819 154.113C68.8574 153.804 69.1122 153.268 69.2598 152.517L70.668 144.686L72.7736 145.061L71.3788 152.799L71.3386 152.785Z" fill="white"/>
<path d="M82.3362 149.419C82.2021 148.829 82.0277 148.387 81.8131 148.105C81.451 147.582 80.8877 147.327 80.1367 147.327C79.4795 147.327 78.9431 147.596 78.4871 148.132C77.9104 148.856 77.6153 149.969 77.6019 151.484C77.6019 152.664 77.7897 153.616 78.1786 154.354C78.6078 155.185 79.2515 155.614 80.0965 155.614C80.6866 155.614 81.156 155.427 81.5315 155.038C81.9204 154.649 82.1753 154.086 82.3094 153.335H84.415C84.1736 154.729 83.6908 155.802 82.9934 156.58C82.2289 157.425 81.2499 157.854 80.0428 157.84C78.6614 157.84 77.5617 157.291 76.7436 156.191C75.8852 155.051 75.4561 153.455 75.4561 151.417C75.4561 149.392 75.9121 147.824 76.8106 146.684C77.6556 145.611 78.7553 145.075 80.1099 145.088C81.4778 145.088 82.5508 145.598 83.3555 146.59C83.9992 147.408 84.3613 148.347 84.4284 149.433H82.3228L82.3362 149.419Z" fill="white"/>
<path d="M87.189 145.116L92.2317 144.217C93.3583 144.016 94.2703 144.298 94.9811 145.062C95.4639 145.612 95.7858 146.269 95.9199 147.046C96.0406 147.717 96.0138 148.334 95.8394 148.884C95.6651 149.46 95.3432 149.889 94.9006 150.157C95.3968 150.305 95.759 150.533 95.9601 150.841C96.2552 151.244 96.51 151.954 96.6978 153C96.8587 153.939 96.9928 154.515 97.0733 154.743C97.1806 155.052 97.3549 155.226 97.5829 155.28L97.6366 155.588L95.3164 156.004C95.1823 155.709 95.075 155.4 94.9945 155.065C94.8872 154.69 94.7799 154.207 94.6726 153.63C94.5117 152.719 94.3239 152.155 94.1362 151.914C93.8679 151.606 93.3851 151.512 92.6877 151.632L90.5419 152.008L91.3734 156.688L89.3348 157.05L87.2024 145.102L87.189 145.116ZM92.567 149.608C93.1169 149.514 93.4924 149.313 93.707 149.018C93.9082 148.709 93.9618 148.267 93.8679 147.677C93.7875 147.248 93.6399 146.926 93.4253 146.698C93.1169 146.389 92.7011 146.282 92.1915 146.376L89.603 146.832L90.1663 150.037L92.567 149.608Z" fill="white"/>
<path d="M103.806 153.75L101.741 154.515L100.936 141.856L103.203 141.012L110.82 151.149L108.688 151.94L107.186 149.822L103.605 151.149L103.806 153.75ZM103.417 148.963L105.871 148.052L102.988 143.989H102.961L103.417 148.963Z" fill="white"/>
<path d="M80 159.972C35.8894 159.972 0 124.089 0 79.9859C0 35.883 35.8894 0 80 0C124.111 0 160 35.883 160 79.9859C160 124.089 124.111 159.972 80 159.972ZM80 1.23365C36.5733 1.23365 1.24728 36.5669 1.24728 79.9859C1.24728 123.405 36.5733 158.725 80 158.725C123.427 158.725 158.753 123.405 158.753 79.9859C158.753 36.5669 123.427 1.23365 80 1.23365Z" fill="#0A195B"/>
<path d="M44.6083 142.231C44.6083 143.264 43.7768 144.095 42.7441 144.095C41.7114 144.095 40.8799 143.264 40.8799 142.231C40.8799 141.199 41.7114 140.367 42.7441 140.367C43.7768 140.367 44.6083 141.199 44.6083 142.231Z" fill="white"/>
<path d="M114.683 142.231C114.683 143.264 113.851 144.095 112.819 144.095C111.786 144.095 110.955 143.264 110.955 142.231C110.955 141.199 111.786 140.367 112.819 140.367C113.851 140.367 114.683 141.199 114.683 142.231Z" fill="white"/>
</g>
</svg>
