<svg width="122" height="133" viewBox="0 0 122 133" fill="none" xmlns="http://www.w3.org/2000/svg">
<mask id="mask0_260_9497" style="mask-type:luminance" maskUnits="userSpaceOnUse" x="0" y="62" width="121" height="77">
<path d="M120.238 62.3569H0V138.034H120.238V62.3569Z" fill="white"/>
</mask>
<g mask="url(#mask0_260_9497)">
<path d="M106.236 128.582L45.7569 132.664L31.3303 138.884L86.789 143.885L106.236 128.582Z" fill="#8BCDD4"/>
<path d="M85.0972 141.836L85.1408 152.985L107.797 138.337C107.797 138.337 110.068 132.918 106.236 128.784L85.0972 141.836Z" fill="#77BCD3"/>
<path d="M95.1707 123.875L40.5086 123.967L26.082 130.186L81.5407 135.188L95.1707 123.875Z" fill="#63D9B4"/>
<path d="M79.8469 130.291L79.8906 142.404L102.549 128.666C102.549 128.666 104.819 124.019 100.988 119.884L79.8488 130.291H79.8469Z" fill="#52CDB6"/>
<path d="M77.0189 132.024V139.928H26.9944C27.884 139.921 29.4943 133.44 26.9944 132.024H77.0208H77.0189Z" fill="#E4E4E4"/>
<path d="M25.7766 132.626V130.135H79.9057C79.9057 130.135 83.8547 136.471 79.9057 142.42H25.7766V139.929H77.0188V132.626H25.7766Z" fill="#49BDA7"/>
<path d="M86.091 116.89L86.1327 129.003L102.689 119.499C102.689 119.499 104.96 115.065 101.128 110.931L86.0891 116.89H86.091Z" fill="#8BB0FC"/>
<path d="M46.6331 110.931H101.13L86.4361 117.181H32.1572L46.6331 110.931Z" fill="#A7C4F9"/>
<path d="M83.5 119.404V126.826H33.4717C35.2736 126.727 35.2736 120.014 33.4717 119.404H83.5Z" fill="#E4E4E4"/>
<path d="M32.2578 119.404V117.197H86.3869C86.3869 117.197 90.3359 122.088 86.3869 129.032H32.2578V126.826H83.5V119.404H32.2578Z" fill="#85A7F5"/>
<path d="M98.4309 101.436L80.0857 107.699V115.455L98.4328 108.12L99.0701 108.05C96.8358 105.698 97.8581 102.511 98.429 101.436H98.4309Z" fill="#D5D5D5"/>
<path d="M100.278 98.584H45.5936L30.8408 104.849L81.8004 105.032L100.278 98.584Z" fill="#FCF490"/>
<path d="M33.7275 107.057V114.477H81.9445C81.4494 114.477 80.9051 112.218 80.9051 110.604C80.9051 108.69 81.4456 107.834 81.9445 107.055H33.7275V107.057Z" fill="white"/>
<path d="M81.9313 107.056V104.847H30.8408C30.8408 104.847 26.8918 109.738 30.8408 116.682H81.9313V114.477H33.7276V107.056H81.9313Z" fill="#E6BB62"/>
<path d="M100.279 100.787L81.9314 107.053V104.849L100.279 98.584V100.787Z" fill="#F6DC71"/>
<path d="M100.279 109.412L81.9314 116.747V114.544L100.279 107.209V109.412Z" fill="#F6DC71"/>
<path d="M85.5217 90.3705L86.1325 103.909L104.959 96.9598C104.959 96.9598 108.675 88.7885 103.398 83.8193L85.5217 90.3705Z" fill="#8A8C8D"/>
<path d="M103.398 83.8193L49.8934 84.1052L35.3455 90.3209H86.2842L103.398 83.8193Z" fill="#ADADAE"/>
<path d="M83.2457 92.4785V101.704H36.2578C36.4077 101.704 37.7088 99.4967 37.7088 97.785C37.7088 95.8542 37.4243 94.2207 36.2578 92.4785H83.2457Z" fill="white"/>
<path d="M35.0439 92.4787V90.2715H86.1325C86.1325 90.2715 90.0834 96.9675 86.1325 103.911H35.0439V101.704H83.2476V92.4787H35.0439Z" fill="#66696B"/>
<path d="M98.4309 73.9194L80.0857 80.1828V87.9386L98.4328 80.604L99.0701 80.5335C96.8358 78.1814 97.8581 74.9945 98.429 73.9194H98.4309Z" fill="#D5D5D5"/>
<path d="M100.278 71.0659H45.5936L30.8408 77.3312L81.8004 77.516L100.278 71.0659Z" fill="#EAA6BF"/>
<path d="M33.7275 79.5405V86.9608H81.9445C81.4494 86.9608 80.9051 84.7022 80.9051 83.0877C80.9051 81.174 81.4456 80.3182 81.9445 79.5405H33.7275Z" fill="white"/>
<path d="M81.9313 79.5402V77.3311H30.8408C30.8408 77.3311 26.8918 82.222 30.8408 89.1658H81.9313V86.9605H33.7276V79.5402H81.9313Z" fill="#E067A3"/>
<path d="M100.279 73.2693L81.9314 79.5346V77.3312L100.279 71.0659V73.2693Z" fill="#ED8AB0"/>
<path d="M100.279 81.8963L81.9314 89.2289V87.0274L100.279 79.6929V81.8963Z" fill="#ED8AB0"/>
</g>
<path d="M62.4216 74.7253C62.4216 72.4475 64.2596 70.5986 66.5281 70.5986C68.7966 70.5986 70.6345 72.4456 70.6345 74.7253C70.6345 77.0049 68.7966 78.8519 66.5281 78.8519C64.2596 78.8519 62.4216 77.0049 62.4216 74.7253Z" fill="#55A9B7"/>
<path d="M18.5557 60.5653L25.7708 55.2207L62.7345 67.8522L18.5557 60.5653Z" fill="#D5D5D5"/>
<path d="M22.5275 53.179L32.4551 44.96C32.8458 44.7199 42.631 47.7029 43.293 47.9678C47.3596 49.5975 52.0502 51.9858 56.6555 51.6427C59.7377 51.4121 64.9727 51.1852 66.6305 54.4694L66.3744 69.5788L22.5256 53.179H22.5275Z" fill="#ECECEC"/>
<path d="M115.38 58.4435L108.58 57.0864L74.7313 66.1765L71.1143 73.2098L115.38 58.4435Z" fill="#C8C8C8"/>
<path d="M113.696 54.8603L108.023 53.3545L73.0471 62.5932L70.0256 69.6266L113.696 54.8603Z" fill="#C8C8C8"/>
<path d="M112.175 51.7916L101.602 43.626C100.214 45.33 96.0715 47.5601 92.9836 48.5036C89.6036 49.5367 82.2879 49.3651 78.7828 49.7883C76.243 50.0952 74.204 50.0094 71.7307 50.7451C70.2968 51.1702 66.1789 52.7103 66.3345 54.6774L66.3098 69.3102L80.9716 62.6409L112.175 51.7897V51.7916Z" fill="#DCDCDC"/>
<path d="M115.409 58.4473L72.8422 66.3555C71.2413 66.3174 66.9718 68.74 66.3819 72.5731C65.9684 68.7172 64.984 66.1726 60.2156 66.062L18.5557 60.5649L13.1443 70.8863L63.8725 76.5949C64.0508 76.1699 64.1551 76.0708 64.4131 75.7391C64.855 75.1635 65.6535 75.0015 66.3288 74.9023C66.9964 75.0339 67.4934 75.0891 68.1743 75.8611C68.4531 76.1775 68.5442 76.2766 68.7035 76.7074L120.34 69.0107L115.409 58.4492V58.4473Z" fill="white"/>
<path d="M121.053 68.3281L69.7373 76.0344C69.1986 76.021 68.7415 76.8845 68.7415 76.8997C67.9752 76.9855 67.1103 76.9912 66.1942 76.9702C65.3539 76.9512 64.5592 76.9092 63.846 76.8101C63.846 76.7873 63.4325 75.8895 62.892 75.8761L12.4843 70.1751C11.9456 70.1637 11.4961 70.7488 11.479 71.4884C11.4619 72.2241 11.8849 72.8322 12.4236 72.8455L61.0009 78.5027C61.8412 79.7016 63.8024 80.5727 66.1088 80.6261C68.4153 80.6794 70.4144 79.9018 71.3097 78.7429L120.991 71.0004C121.531 71.0119 121.981 70.4267 121.998 69.6871C122.015 68.9495 121.592 68.3434 121.052 68.33L121.053 68.3281Z" fill="#66C7CC"/>
<path d="M119.056 66.3367L118.884 65.9727L77.3052 72.459L77.2976 72.8212L119.056 66.3367Z" fill="#CDCDCD"/>
<path d="M118.123 64.3333L117.95 63.9692L76.372 70.4575L76.3625 70.8177L118.123 64.3333Z" fill="#CDCDCD"/>
<path d="M117.395 62.7415L117.222 62.3774L102.623 64.8401L102.615 65.1984L117.395 62.7415Z" fill="#CDCDCD"/>
<path d="M16.5584 64.4077L16.3706 64.7622L43.0805 68.5648L43.0899 68.2046L16.5584 64.4077Z" fill="#CDCDCD"/>
<path d="M17.281 63.0449L17.0933 63.4014L49.0248 67.8177L49.0324 67.4575L17.281 63.0449Z" fill="#CDCDCD"/>
<path d="M66.0065 72.9736L64.9235 72.9908C64.8685 69.2015 67.4784 66.453 71.1998 65.256L112.258 51.5742L112.7 52.5692L71.5867 66.2757L71.5582 66.2852C69.2613 67.0172 65.9458 68.7746 66.0065 72.9736Z" fill="white"/>
<path d="M67.4423 73.8677L65.6422 74.0069C65.316 69.7887 68.1877 66.3063 71.7763 65.521C71.7801 65.521 71.7839 65.521 71.7877 65.5191L113.533 54.8433L114.396 56.5054L72.2296 67.2803L72.1955 67.288C72.1841 67.2918 72.1727 67.2937 72.1613 67.2956C69.4775 67.8846 67.1881 70.5817 67.4423 73.8696V73.8677Z" fill="white"/>
<path d="M66.824 74.9388L65.758 74.7463C66.4598 70.8236 66.3403 68.7498 62.029 67.3717L61.9437 67.3374L22.0269 54.1455L22.5238 53.1772L62.4008 66.3482C67.2147 67.9245 67.6225 70.4691 66.8221 74.9388H66.824Z" fill="white"/>
<path d="M28.0545 69.1651L23.7053 68.2197C22.0988 71.8241 22.2031 75.8459 22.2979 79.477C22.4288 84.5166 22.5407 88.8682 18.6619 91.6586L21.7668 91.8016L21.2642 95.3164C27.0758 91.1383 26.9127 84.8826 26.7685 79.3626C26.6737 75.7296 26.5845 71.9251 28.0545 69.169V69.1651Z" fill="#E067A3"/>
<path d="M100.878 30.3008H31.8596V53.7225H100.878V30.3008Z" fill="#EDE2CD"/>
<path d="M103.202 31.0573H29.5342L33.9631 20.5625H98.7746L103.202 31.0573Z" fill="#174F93"/>
<path d="M77.8346 53.7224H54.9031V22.8327L66.1792 10.6567L77.8346 22.8327V53.7224Z" fill="#E6D7BB"/>
<path d="M42.5116 35.1079H39.8391V37.7955H42.5116V35.1079Z" fill="white"/>
<path d="M42.5116 39.2954H39.8391V41.9811H42.5116V39.2954Z" fill="white"/>
<path d="M42.5116 43.4814H39.8391V46.1671H42.5116V43.4814Z" fill="white"/>
<path d="M37.8798 35.1079H35.2073V37.7955H37.8798V35.1079Z" fill="white"/>
<path d="M37.8798 39.2954H35.2073V41.9811H37.8798V39.2954Z" fill="white"/>
<path d="M37.8798 43.4814H35.2073V46.1671H37.8798V43.4814Z" fill="white"/>
<path d="M47.1453 35.1079H44.4709V37.7955H47.1453V35.1079Z" fill="white"/>
<path d="M47.1453 39.2954H44.4709V41.9811H47.1453V39.2954Z" fill="white"/>
<path d="M47.1453 43.4814H44.4709V46.1671H47.1453V43.4814Z" fill="white"/>
<path d="M51.7772 35.1079H49.1028V37.7955H51.7772V35.1079Z" fill="white"/>
<path d="M51.7772 39.2954H49.1028V41.9811H51.7772V39.2954Z" fill="white"/>
<path d="M51.7772 43.4814H49.1028V46.1671H51.7772V43.4814Z" fill="white"/>
<path d="M88.3424 35.1079H85.6699V37.7955H88.3424V35.1079Z" fill="white"/>
<path d="M88.3424 39.2954H85.6699V41.9811H88.3424V39.2954Z" fill="white"/>
<path d="M88.3424 43.4814H85.6699V46.1671H88.3424V43.4814Z" fill="white"/>
<path d="M83.7125 35.1079H81.0381V37.7955H83.7125V35.1079Z" fill="white"/>
<path d="M83.7125 39.2954H81.0381V41.9811H83.7125V39.2954Z" fill="white"/>
<path d="M83.7125 43.4814H81.0381V46.1671H83.7125V43.4814Z" fill="white"/>
<path d="M92.9762 35.1079H90.3018V37.7955H92.9762V35.1079Z" fill="white"/>
<path d="M92.9762 39.2954H90.3018V41.9811H92.9762V39.2954Z" fill="white"/>
<path d="M92.9762 43.4814H90.3018V46.1671H92.9762V43.4814Z" fill="white"/>
<path d="M97.608 35.1079H94.9336V37.7955H97.608V35.1079Z" fill="white"/>
<path d="M97.608 39.2954H94.9336V41.9811H97.608V39.2954Z" fill="white"/>
<path d="M97.608 43.4814H94.9336V46.1671H97.608V43.4814Z" fill="white"/>
<path d="M61.0202 30.0264H58.7839V39.7225H61.0202V30.0264Z" fill="white"/>
<path d="M61.0202 25.8862H58.7839V39.7243H61.0202V25.8862Z" fill="white"/>
<path d="M61.3918 39.4707H58.4102V40.3513H61.3918V39.4707Z" fill="#C39788"/>
<path d="M65.3315 30.0264H63.0952V39.7225H65.3315V30.0264Z" fill="white"/>
<path d="M65.3315 25.8862H63.0952V39.7243H65.3315V25.8862Z" fill="white"/>
<path d="M65.7031 39.4707H62.7214V40.3513H65.7031V39.4707Z" fill="#C39788"/>
<path d="M69.6408 30.0264H67.4065V39.7225H69.6408V30.0264Z" fill="white"/>
<path d="M69.6408 25.8862H67.4065V39.7243H69.6408V25.8862Z" fill="white"/>
<path d="M70.0144 39.4707H67.0347V40.3513H70.0144V39.4707Z" fill="#C39788"/>
<path d="M73.954 30.0264H71.7178V39.7225H73.954V30.0264Z" fill="white"/>
<path d="M73.954 25.8862H71.7178V39.7243H73.954V25.8862Z" fill="white"/>
<path d="M74.3276 39.4707H71.3459V40.3513H74.3276V39.4707Z" fill="#C39788"/>
<path d="M66.27 7.26194V0.447754L73.9006 3.71285L66.27 7.26194Z" fill="#E067A3"/>
<path d="M66.7765 0H65.9609V11.1772H66.7765V0Z" fill="#AE735F"/>
<path d="M66.3687 13.009L77.9445 24.6417H81.4004L66.3687 9.53613L51.3352 24.6417H54.793L66.3687 13.009Z" fill="#003C7C"/>
<path d="M63.6016 20.3415C63.6016 18.8052 64.8401 17.5605 66.3689 17.5605C67.8977 17.5605 69.1362 18.8052 69.1362 20.3415C69.1362 21.8778 67.8977 23.1225 66.3689 23.1225C64.8401 23.1225 63.6016 21.8778 63.6016 20.3415Z" fill="#9E573F"/>
<path d="M64.2332 20.3416C64.2332 19.1579 65.1891 18.1973 66.367 18.1973C67.5449 18.1973 68.5008 19.1579 68.5008 20.3416C68.5008 21.5253 67.5449 22.4878 66.367 22.4878C65.1891 22.4878 64.2332 21.5272 64.2332 20.3416Z" fill="white"/>
<path d="M66.5245 20.0518C66.5245 20.1338 66.4581 20.1986 66.3785 20.1986C66.2969 20.1986 66.2324 20.1319 66.2324 20.0518V18.8357C66.2324 18.7538 66.2988 18.689 66.3785 18.689C66.4581 18.689 66.5245 18.7538 66.5245 18.8357V20.0518Z" fill="#652F25"/>
<path d="M66.2266 20.4884C66.147 20.4884 66.0806 20.4236 66.0806 20.3416C66.0806 20.2596 66.147 20.1948 66.2266 20.1948H67.4386C67.5202 20.1948 67.5847 20.2596 67.5847 20.3416C67.5847 20.4236 67.5183 20.4884 67.4386 20.4884H66.2266Z" fill="#652F25"/>
<path d="M66.0217 20.3415C66.0217 20.149 66.1773 19.9946 66.3669 19.9946C66.5566 19.9946 66.7121 20.149 66.7121 20.3415C66.7121 20.534 66.5566 20.6884 66.3669 20.6884C66.1773 20.6884 66.0217 20.5321 66.0217 20.3415Z" fill="#652F25"/>
<path d="M70.0863 44.9087H62.6511V53.7242H70.0863V44.9087Z" fill="#652F25"/>
<path d="M61.9834 45.2041H60.9175V53.7242H61.9834V45.2041Z" fill="#C39788"/>
<path d="M71.8179 45.2041H70.752V53.7242H71.8179V45.2041Z" fill="#C39788"/>
<path d="M72.2543 43.9463H60.4832V45.4578H72.2543V43.9463Z" fill="#9E573F"/>
</svg>
