<svg width="311" height="369" viewBox="0 0 311 369" fill="none" xmlns="http://www.w3.org/2000/svg">
<g opacity="0.07" clip-path="url(#clip0_260_9379)">
<path d="M41.6994 305.453C126.033 305.453 194.399 237.129 194.399 152.846C194.399 68.5633 126.033 0.23877 41.6994 0.23877C-42.6341 0.23877 -111 68.5633 -111 152.846C-111 237.129 -42.6341 305.453 41.6994 305.453Z" fill="#FF8340"/>
<mask id="mask0_260_9379" style="mask-type:luminance" maskUnits="userSpaceOnUse" x="15" y="73" width="246" height="246">
<path d="M224.543 282.595C272.292 234.875 272.292 157.506 224.543 109.786C176.794 62.0656 99.3778 62.0655 51.6289 109.786C3.88002 157.506 3.88002 234.875 51.6289 282.595C99.3778 330.315 176.794 330.315 224.543 282.595Z" fill="white"/>
</mask>
<g mask="url(#mask0_260_9379)">
<path d="M55.3848 80.1682L52.0872 83.4639L252.329 283.584L255.626 280.289L55.3848 80.1682Z" fill="#FF8340"/>
<path d="M48.3401 87.2073L45.0425 90.5029L245.284 290.624L248.582 287.328L48.3401 87.2073Z" fill="#FF8340"/>
<path d="M41.2964 94.2473L37.9988 97.543L238.24 297.664L241.538 294.368L41.2964 94.2473Z" fill="#FF8340"/>
<path d="M34.2547 101.283L30.957 104.579L231.199 304.7L234.496 301.404L34.2547 101.283Z" fill="#FF8340"/>
<path d="M27.211 108.323L23.9133 111.619L224.155 311.74L227.453 308.444L27.211 108.323Z" fill="#FF8340"/>
<path d="M20.1692 115.364L16.8716 118.659L217.113 318.78L220.411 315.484L20.1692 115.364Z" fill="#FF8340"/>
<path d="M13.1255 122.4L9.82788 125.695L210.069 325.816L213.367 322.52L13.1255 122.4Z" fill="#FF8340"/>
<path d="M6.08352 129.44L2.78589 132.735L203.027 332.856L206.325 329.56L6.08352 129.44Z" fill="#FF8340"/>
<path d="M-0.959919 136.48L-4.25757 139.775L195.984 339.896L199.282 336.6L-0.959919 136.48Z" fill="#FF8340"/>
<path d="M-8.00191 143.516L-11.2996 146.812L188.942 346.932L192.24 343.636L-8.00191 143.516Z" fill="#FF8340"/>
<path d="M-15.0454 150.556L-18.343 153.852L181.899 353.972L185.196 350.677L-15.0454 150.556Z" fill="#FF8340"/>
<path d="M-22.0874 157.592L-25.385 160.888L174.857 361.008L178.154 357.713L-22.0874 157.592Z" fill="#FF8340"/>
<path d="M-29.1308 164.632L-32.4285 167.928L167.813 368.048L171.111 364.753L-29.1308 164.632Z" fill="#FF8340"/>
<path d="M-36.1728 171.672L-39.4705 174.968L160.771 375.088L164.069 371.793L-36.1728 171.672Z" fill="#FF8340"/>
<path d="M-43.2163 178.708L-46.5139 182.004L153.728 382.125L157.025 378.829L-43.2163 178.708Z" fill="#FF8340"/>
<path d="M-50.2583 185.748L-53.5559 189.044L146.686 389.165L149.983 385.869L-50.2583 185.748Z" fill="#FF8340"/>
<path d="M168.209 -32.5867L164.911 -29.291L365.152 170.83L368.45 167.534L168.209 -32.5867Z" fill="#FF8340"/>
<path d="M161.161 -25.5505L157.864 -22.2549L358.105 177.866L361.403 174.57L161.161 -25.5505Z" fill="#FF8340"/>
<path d="M154.123 -18.5105L150.825 -15.2148L351.067 184.906L354.365 181.61L154.123 -18.5105Z" fill="#FF8340"/>
<path d="M147.076 -11.4744L143.778 -8.17871L344.02 191.942L347.318 188.646L147.076 -11.4744Z" fill="#FF8340"/>
<path d="M140.038 -4.43431L136.74 -1.13867L336.982 198.982L340.279 195.686L140.038 -4.43431Z" fill="#FF8340"/>
<path d="M132.99 2.60573L129.693 5.90137L329.934 206.022L333.232 202.726L132.99 2.60573Z" fill="#FF8340"/>
<path d="M125.952 9.64186L122.655 12.9375L322.896 213.058L326.194 209.762L125.952 9.64186Z" fill="#FF8340"/>
<path d="M118.905 16.6819L115.607 19.9775L315.849 220.098L319.146 216.803L118.905 16.6819Z" fill="#FF8340"/>
<path d="M111.867 23.718L108.569 27.0137L308.811 227.134L312.108 223.839L111.867 23.718Z" fill="#FF8340"/>
<path d="M104.822 30.7605L101.524 34.0562L301.766 234.177L305.064 230.881L104.822 30.7605Z" fill="#FF8340"/>
<path d="M97.7813 37.7976L94.4836 41.0933L294.725 241.214L298.023 237.918L97.7813 37.7976Z" fill="#FF8340"/>
<path d="M90.7339 44.8338L87.4363 48.1294L287.678 248.25L290.975 244.954L90.7339 44.8338Z" fill="#FF8340"/>
<path d="M83.6958 51.8738L80.3982 55.1694L280.64 255.29L283.937 251.994L83.6958 51.8738Z" fill="#FF8340"/>
<path d="M76.6511 58.9129L73.3535 62.2085L273.595 262.329L276.893 259.033L76.6511 58.9129Z" fill="#FF8340"/>
<path d="M69.6104 65.95L66.3127 69.2456L266.554 269.366L269.852 266.071L69.6104 65.95Z" fill="#FF8340"/>
<path d="M62.563 72.99L59.2654 76.2856L259.507 276.406L262.805 273.111L62.563 72.99Z" fill="#FF8340"/>
</g>
</g>
<defs>
<clipPath id="clip0_260_9379">
<rect width="422" height="369" fill="white" transform="translate(-111)"/>
</clipPath>
</defs>
</svg>
