<svg width="1920" height="980" viewBox="0 0 1920 980" fill="none" xmlns="http://www.w3.org/2000/svg">
<g clip-path="url(#clip0_31_771)" filter="url(#filter0_f_31_771)">
<path d="M1499.87 399.71C1055.57 553.05 608.79 19 608.79 19H-56.86C20.57 61.4 235.03 188.26 247 282C259 376 165 418 41 428C-32.29 433.91 -124.63 412.96 -140 410V960C-140 960 261.03 789.63 681 728C1417 620 1563 966 2060 880V348C2060 348 1838.91 282.7 1499.87 399.71Z" fill="white"/>
</g>
<circle cx="1811.5" cy="71.5" r="449.5" fill="url(#paint0_radial_31_771)"/>
<circle cx="147.5" cy="847.5" r="449.5" fill="url(#paint1_radial_31_771)"/>
<defs>
<filter id="filter0_f_31_771" x="-180" y="-21" width="2280" height="1021" filterUnits="userSpaceOnUse" color-interpolation-filters="sRGB">
<feFlood flood-opacity="0" result="BackgroundImageFix"/>
<feBlend mode="normal" in="SourceGraphic" in2="BackgroundImageFix" result="shape"/>
<feGaussianBlur stdDeviation="20" result="effect1_foregroundBlur_31_771"/>
</filter>
<radialGradient id="paint0_radial_31_771" cx="0" cy="0" r="1" gradientUnits="userSpaceOnUse" gradientTransform="translate(1811.5 71.5) rotate(90) scale(449.5)">
<stop stop-color="#034DA2" stop-opacity="0.1"/>
<stop offset="1" stop-color="#034DA2" stop-opacity="0"/>
</radialGradient>
<radialGradient id="paint1_radial_31_771" cx="0" cy="0" r="1" gradientUnits="userSpaceOnUse" gradientTransform="translate(147.5 847.5) rotate(90) scale(449.5)">
<stop stop-color="#034DA2" stop-opacity="0.2"/>
<stop offset="1" stop-color="#034DA2" stop-opacity="0"/>
</radialGradient>
<clipPath id="clip0_31_771">
<rect width="2200" height="941" fill="white" transform="translate(-140 19)"/>
</clipPath>
</defs>
</svg>
