<svg width="18" height="12" viewBox="0 0 18 12" fill="none" xmlns="http://www.w3.org/2000/svg">
<path d="M9 9.6C10.049 9.6 10.9406 9.25 11.6748 8.55C12.4091 7.85 12.7762 7 12.7762 6C12.7762 5 12.4091 4.15 11.6748 3.45C10.9406 2.75 10.049 2.4 9 2.4C7.95105 2.4 7.05944 2.75 6.32517 3.45C5.59091 4.15 5.22378 5 5.22378 6C5.22378 7 5.59091 7.85 6.32517 8.55C7.05944 9.25 7.95105 9.6 9 9.6ZM9 8.16C8.37063 8.16 7.83566 7.95 7.3951 7.53C6.95455 7.11 6.73427 6.6 6.73427 6C6.73427 5.4 6.95455 4.89 7.3951 4.47C7.83566 4.05 8.37063 3.84 9 3.84C9.62937 3.84 10.1643 4.05 10.6049 4.47C11.0455 4.89 11.2657 5.4 11.2657 6C11.2657 6.6 11.0455 7.11 10.6049 7.53C10.1643 7.95 9.62937 8.16 9 8.16ZM9 12C7.12587 12 5.41608 11.52 3.87063 10.56C2.32517 9.6 1.1049 8.33333 0.20979 6.76C0.13986 6.64 0.0874126 6.51667 0.0524475 6.39C0.0174825 6.26333 0 6.13333 0 6C0 5.86667 0.0174825 5.73667 0.0524475 5.61C0.0874126 5.48333 0.13986 5.36 0.20979 5.24C1.1049 3.66667 2.32517 2.4 3.87063 1.44C5.41608 0.48 7.12587 0 9 0C10.8741 0 12.5839 0.48 14.1294 1.44C15.6748 2.4 16.8951 3.66667 17.7902 5.24C17.8601 5.36 17.9126 5.48333 17.9476 5.61C17.9825 5.73667 18 5.86667 18 6C18 6.13333 17.9825 6.26333 17.9476 6.39C17.9126 6.51667 17.8601 6.64 17.7902 6.76C16.8951 8.33333 15.6748 9.6 14.1294 10.56C12.5839 11.52 10.8741 12 9 12Z" fill="#6D7882"/>
</svg>
