<svg width="20" height="20" viewBox="0 0 20 20" fill="none" xmlns="http://www.w3.org/2000/svg">
<g clip-path="url(#clip0_958_6862)">
<path d="M10.1688 12.9941C10.1688 13.805 9.86154 14.6159 9.24205 15.2354L7.43898 17.0385L6.43671 18.0407C5.81722 18.6602 5.00634 18.9674 4.19547 18.9674C3.38459 18.9674 2.57371 18.6602 1.95422 18.0407C1.33472 17.4212 1.0275 16.6104 1.02246 15.7995C1.02246 14.9886 1.33472 14.1777 1.95422 13.5582L2.95648 12.556L4.75956 10.7529C5.37905 10.1334 6.18993 9.82617 7.0008 9.82617" stroke="#6D7882" stroke-width="1.5" stroke-linecap="round" stroke-linejoin="round"/>
<path d="M9.14111 7.6862C9.14111 6.87532 9.45338 6.06444 10.0678 5.44495L11.8709 3.64188L12.8732 2.63961C13.4927 2.02012 14.3035 1.71289 15.1144 1.71289C15.9253 1.71289 16.7362 2.02515 17.3557 2.63961C17.9752 3.2591 18.2824 4.06998 18.2874 4.88086C18.2874 5.69174 17.9752 6.50262 17.3557 7.12211L16.3534 8.12437L14.5503 9.92745C13.9308 10.5469 13.12 10.8542 12.3091 10.8542" stroke="#6D7882" stroke-width="1.5" stroke-linecap="round" stroke-linejoin="round"/>
<path d="M7.89258 12.1037L11.4181 8.57812" stroke="#6D7882" stroke-width="1.5" stroke-linecap="round" stroke-linejoin="round"/>
</g>
<defs>
<clipPath id="clip0_958_6862">
<rect width="20" height="20" fill="white"/>
</clipPath>
</defs>
</svg>
