<svg width="18" height="18" viewBox="0 0 18 18" fill="none" xmlns="http://www.w3.org/2000/svg">
<path d="M9.00021 17.3776C7.97795 17.3776 7.01975 17.1792 6.12561 16.7824C5.23161 16.3856 4.45328 15.8483 3.79061 15.1706C3.12808 14.493 2.60281 13.6969 2.21481 12.7825C1.82681 11.8682 1.63281 10.8898 1.63281 9.84747C1.63281 9.58633 1.72061 9.36597 1.89621 9.18638C2.07195 9.00665 2.28748 8.91679 2.54281 8.91679C2.79815 8.91679 3.01368 9.00665 3.18941 9.18638C3.36501 9.36597 3.45281 9.58633 3.45281 9.84747C3.45281 11.4267 3.99135 12.7663 5.06841 13.8662C6.14561 14.9662 7.45621 15.5162 9.00021 15.5162C10.5442 15.5162 11.8548 14.9654 12.932 13.8637C14.0091 12.7622 14.5476 11.4219 14.5476 9.84276C14.5476 8.26354 14.0083 6.92397 12.9296 5.82406C11.8509 4.72415 10.5395 4.1742 8.99541 4.1742H8.87061L9.48841 4.80604C9.65481 4.97608 9.73548 5.17592 9.73041 5.40556C9.72535 5.6352 9.64468 5.83511 9.48841 6.00529C9.32201 6.17547 9.12248 6.26315 8.88981 6.26833C8.65701 6.27351 8.45741 6.19101 8.29101 6.02083L6.21681 3.89929C6.03441 3.71288 5.94321 3.49429 5.94321 3.24351C5.94321 2.99261 6.03441 2.77395 6.21681 2.58754L8.29101 0.465992C8.45741 0.29581 8.65701 0.21331 8.88981 0.218491C9.12248 0.22381 9.32201 0.313129 9.48841 0.486447C9.64468 0.656629 9.72455 0.857355 9.72801 1.08863C9.73148 1.31976 9.65001 1.52042 9.48361 1.69061L8.87541 2.31283H8.99541C10.0177 2.31283 10.9759 2.51117 11.87 2.90785C12.764 3.30467 13.5431 3.84195 14.2074 4.51967C14.8715 5.19727 15.3976 5.99247 15.7856 6.90529C16.1736 7.81797 16.3676 8.79713 16.3676 9.84276C16.3676 10.8883 16.1736 11.8682 15.7856 12.7825C15.3976 13.6969 14.8723 14.493 14.2098 15.1706C13.5471 15.8483 12.7688 16.3856 11.8748 16.7824C10.9807 17.1792 10.0225 17.3776 9.00021 17.3776Z" fill="#0A195B"/>
</svg>
