<svg width="30" height="31" viewBox="0 0 30 31" fill="none" xmlns="http://www.w3.org/2000/svg">
<g clip-path="url(#clip0_465_45347)">
<path d="M22.7681 7.72998V12.0291" stroke="#464C53" stroke-width="1.5" stroke-linecap="round" stroke-linejoin="round"/>
<path d="M22.768 24.1617V30.0345L1.54053 30.0663V1.58043L16.6394 1.54858" stroke="#464C53" stroke-width="1.5" stroke-linecap="round" stroke-linejoin="round"/>
<path d="M22.768 7.72981H16.6394V1.54858L22.768 7.72981Z" stroke="#464C53" stroke-width="1.5" stroke-linecap="round" stroke-linejoin="round"/>
<path d="M5.50317 8.354H11.5149" stroke="#464C53" stroke-width="1.5" stroke-linecap="round" stroke-linejoin="round"/>
<path d="M5.50317 13.3538H16.3237" stroke="#464C53" stroke-width="1.5" stroke-linecap="round" stroke-linejoin="round"/>
<path d="M5.50317 17.0129H13.5483" stroke="#464C53" stroke-width="1.5" stroke-linecap="round" stroke-linejoin="round"/>
<path d="M5.50317 20.675H13.0084" stroke="#464C53" stroke-width="1.5" stroke-linecap="round" stroke-linejoin="round"/>
<path d="M5.50317 24.3342H11.0697" stroke="#464C53" stroke-width="1.5" stroke-linecap="round" stroke-linejoin="round"/>
<path d="M24.462 22.8292C26.7897 20.4815 26.7897 16.6752 24.462 14.3276C22.1344 11.9799 18.3605 11.9799 16.0328 14.3276C13.7052 16.6752 13.7052 20.4815 16.0328 22.8292C18.3605 25.1768 22.1344 25.1768 24.462 22.8292Z" stroke="#034DA2" stroke-width="1.5" stroke-linecap="round" stroke-linejoin="round"/>
<path d="M24.5454 22.7942L28.5459 26.829" stroke="#034DA2" stroke-width="1.5" stroke-linecap="round" stroke-linejoin="round"/>
</g>
<defs>
<clipPath id="clip0_465_45347">
<rect width="30" height="31" fill="white"/>
</clipPath>
</defs>
</svg>
