<svg width="32" height="31" viewBox="0 0 32 31" fill="none" xmlns="http://www.w3.org/2000/svg">
<g clip-path="url(#clip0_465_75058)">
<path d="M7.3179 12.7428L5.27163 11.3731C5.84925 11.7211 7.02686 11.0206 7.90447 9.80709C9.00149 8.29017 9.30149 6.70632 8.58059 6.27355C7.67611 5.72924 5.83581 6.82678 4.46566 8.72293C4.30447 8.94601 4.15671 9.16463 4.0179 9.3877C2.6791 11.5382 2.38357 13.6306 3.40895 14.2463C4.32686 14.7996 5.86268 14.2686 7.41193 13.0194C8.24925 12.3457 9.08656 11.4623 9.8388 10.4228C12.5119 6.7197 13.2507 2.85601 11.491 1.79417C9.28805 0.460166 4.79253 3.13263 1.44775 7.7637L3.88805 9.36986" stroke="#464C53" stroke-width="1.5" stroke-linecap="round" stroke-linejoin="round"/>
<path d="M11.9299 2.10645L18.4224 11.3284C19.1209 12.2654 19.9403 13.1086 20.8582 13.8358L30.1403 21.3669C30.1403 21.3669 31.1478 23.1783 29.2448 25.7526C27.3776 28.2823 24.6911 28.0592 24.6911 28.0592L16.3358 20.0374C15.1538 18.8997 13.7746 17.9895 12.2657 17.3471L3.41345 14.2418" stroke="#464C53" stroke-width="1.5" stroke-linecap="round" stroke-linejoin="round"/>
<path d="M8.58508 6.26904L10.8821 8.64704" stroke="#464C53" stroke-width="1.5" stroke-linecap="round" stroke-linejoin="round"/>
<path d="M12.6015 17.7218C12.6015 17.7218 11.903 19.0111 13.0717 19.5555C13.7881 19.8901 14.8851 19.6804 16.1075 18.8148C16.7657 18.3508 17.4373 17.7262 18.0552 16.9901C20.2493 14.3533 21.0149 11.5113 19.7702 10.6413C19.7702 10.6413 19.1702 10.2085 18.3508 10.7305" stroke="#034DA2" stroke-width="1.5" stroke-linecap="round" stroke-linejoin="round"/>
<path d="M13.4701 19.792C14.1014 20.2649 15.2208 20.2917 16.5955 19.7028C17.3388 19.386 18.1268 18.9175 18.8835 18.3242C21.5835 16.2005 22.9313 13.586 21.897 12.4751C21.897 12.4751 21.3999 11.9263 20.491 12.2654" stroke="#034DA2" stroke-width="1.5" stroke-linecap="round" stroke-linejoin="round"/>
<path d="M13.3672 19.8546L13 19.8099C11.1194 19.5735 9.48508 21.0949 9.59254 22.9776C9.68657 24.6953 11.1955 25.9892 12.9149 25.8241L15.091 25.6144C16.5105 25.4761 17.8358 26.3461 18.2746 27.7024L18.794 29.3219" stroke="#034DA2" stroke-width="1.5" stroke-linecap="round" stroke-linejoin="round"/>
</g>
<defs>
<clipPath id="clip0_465_75058">
<rect width="32" height="31" fill="white"/>
</clipPath>
</defs>
</svg>
