<svg width="53" height="48" viewBox="0 0 53 48" fill="none" xmlns="http://www.w3.org/2000/svg">
<g clip-path="url(#clip0_719_13149)">
<path d="M51.3574 10.3882H1.13892V43.0231H21.4926C21.8266 45.1907 23.8261 46.8631 26.2456 46.8631C28.6652 46.8631 30.6646 45.1958 30.9987 43.0231H51.3574V10.3882Z" fill="white"/>
<path d="M26.2507 48.0001C23.6742 48.0001 21.4116 46.4035 20.6169 44.1601H1.13891C0.511245 44.1601 0 43.6498 0 43.0233V10.3883C0 9.76178 0.511245 9.25146 1.13891 9.25146H51.3574C51.9851 9.25146 52.4963 9.76178 52.4963 10.3883V43.0233C52.4963 43.6498 51.9851 44.1601 51.3574 44.1601H31.8845C31.0847 46.4035 28.8221 48.0001 26.2507 48.0001ZM2.27783 41.8864H21.4926C22.0544 41.8864 22.5353 42.2957 22.6163 42.8515C22.8694 44.4885 24.4284 45.7264 26.2456 45.7264C28.0628 45.7264 29.6219 44.4885 29.875 42.8515C29.961 42.2957 30.4368 41.8864 30.9987 41.8864H50.2185V11.5251H2.27783V41.8864Z" fill="#464C53"/>
<path d="M33.2815 4.67334C29.6016 4.67334 26.5847 7.47755 26.2507 11.0649C25.9166 7.4826 22.8947 4.67334 19.2198 4.67334H5.04663V38.1268H47.4496V4.67334H33.2815Z" fill="white"/>
<path d="M47.4496 39.2638H5.04663C4.41896 39.2638 3.90771 38.7535 3.90771 38.1269V4.67346C3.90771 4.04694 4.41896 3.53662 5.04663 3.53662H19.2147C22.1961 3.53662 24.8131 5.09788 26.2456 7.48778C27.6832 5.09788 30.2951 3.53662 33.2765 3.53662H47.4446C48.0722 3.53662 48.5835 4.04694 48.5835 4.67346V38.1269C48.5835 38.7535 48.0722 39.2638 47.4446 39.2638H47.4496ZM6.18554 36.9901H46.3107V5.81031H33.2815C30.204 5.81031 27.668 8.11431 27.3845 11.1711C27.3288 11.7573 26.8378 12.2019 26.2507 12.2019C25.6635 12.2019 25.1725 11.7573 25.1168 11.1711C24.8333 8.11431 22.2974 5.81031 19.2198 5.81031H6.18554V36.9901Z" fill="#464C53"/>
<path d="M26.2507 32.7762C25.6231 32.7762 25.1118 32.2659 25.1118 31.6394V10.9489C25.1118 10.3223 25.6231 9.81201 26.2507 9.81201C26.8784 9.81201 27.3896 10.3223 27.3896 10.9489V31.6394C27.3896 32.2659 26.8784 32.7762 26.2507 32.7762Z" fill="#464C53"/>
<path d="M19.4121 12.2981H11.0803C10.4527 12.2981 9.94141 11.7878 9.94141 11.1613C9.94141 10.5347 10.4527 10.0244 11.0803 10.0244H19.4121C20.0398 10.0244 20.551 10.5347 20.551 11.1613C20.551 11.7878 20.0398 12.2981 19.4121 12.2981Z" fill="#464C53"/>
<path d="M19.4121 18.7708H11.0803C10.4527 18.7708 9.94141 18.2604 9.94141 17.6339C9.94141 17.0074 10.4527 16.4971 11.0803 16.4971H19.4121C20.0398 16.4971 20.551 17.0074 20.551 17.6339C20.551 18.2604 20.0398 18.7708 19.4121 18.7708Z" fill="#464C53"/>
<path d="M19.4121 25.238H11.0803C10.4527 25.238 9.94141 24.7277 9.94141 24.1012C9.94141 23.4747 10.4527 22.9644 11.0803 22.9644H19.4121C20.0398 22.9644 20.551 23.4747 20.551 24.1012C20.551 24.7277 20.0398 25.238 19.4121 25.238Z" fill="#464C53"/>
<path d="M19.4121 31.7102H11.0803C10.4527 31.7102 9.94141 31.1999 9.94141 30.5734C9.94141 29.9468 10.4527 29.4365 11.0803 29.4365H19.4121C20.0398 29.4365 20.551 29.9468 20.551 30.5734C20.551 31.1999 20.0398 31.7102 19.4121 31.7102Z" fill="#464C53"/>
<path d="M41.4211 18.7708H33.0842C32.4566 18.7708 31.9453 18.2604 31.9453 17.6339C31.9453 17.0074 32.4566 16.4971 33.0842 16.4971H41.4211C42.0487 16.4971 42.56 17.0074 42.56 17.6339C42.56 18.2604 42.0487 18.7708 41.4211 18.7708Z" fill="#464C53"/>
<path d="M41.4211 25.238H33.0842C32.4566 25.238 31.9453 24.7277 31.9453 24.1012C31.9453 23.4747 32.4566 22.9644 33.0842 22.9644H41.4211C42.0487 22.9644 42.56 23.4747 42.56 24.1012C42.56 24.7277 42.0487 25.238 41.4211 25.238Z" fill="#464C53"/>
<path d="M41.4211 31.7107H33.0842C32.4566 31.7107 31.9453 31.2004 31.9453 30.5739C31.9453 29.9473 32.4566 29.437 33.0842 29.437H41.4211C42.0487 29.437 42.56 29.9473 42.56 30.5739C42.56 31.2004 42.0487 31.7107 41.4211 31.7107Z" fill="#464C53"/>
<path d="M34.9268 1.13672V14.3595L38.7687 11.2976L42.6106 14.3595V1.13672H34.9268Z" fill="white"/>
<path d="M42.6106 15.4964C42.3575 15.4964 42.1044 15.4105 41.8969 15.2488L38.7687 12.7528L35.6405 15.2488C35.3013 15.5217 34.8306 15.5722 34.4358 15.3853C34.0409 15.1933 33.7878 14.7992 33.7878 14.3596V1.13684C33.7878 0.510316 34.2991 0 34.9268 0H42.6056C43.2332 0 43.7445 0.510316 43.7445 1.13684V14.3596C43.7445 14.7992 43.4914 15.1933 43.0966 15.3853C42.9396 15.4611 42.7726 15.4964 42.6056 15.4964H42.6106ZM38.7687 10.1608C39.0218 10.1608 39.2698 10.2417 39.4824 10.4084L41.4717 11.9949V2.27368H36.0707V11.9949L38.06 10.4084C38.2676 10.2417 38.5207 10.1608 38.7738 10.1608H38.7687Z" fill="#034DA2"/>
</g>
<defs>
<clipPath id="clip0_719_13149">
<rect width="53" height="48" fill="white"/>
</clipPath>
</defs>
</svg>
