<svg width="46" height="40" viewBox="0 0 46 40" fill="none" xmlns="http://www.w3.org/2000/svg">
<g clip-path="url(#clip0_465_47055)">
<path d="M14.7898 1.44475C11.535 1.26931 7.72254 1.62019 4.87891 2.39212V32.8974C7.72254 32.1325 11.535 31.7816 14.7898 31.95C17.7101 32.1044 20.4771 32.6658 23.0001 33.55V3.04475C20.4771 2.16054 17.7101 1.59914 14.7898 1.44475Z" stroke="#464C53" stroke-width="2" stroke-linecap="round" stroke-linejoin="round"/>
<path d="M9.06079 8.62438C10.399 8.41386 11.772 8.30859 13.159 8.30859C13.6399 8.30859 14.1208 8.32263 14.6017 8.34368C16.2814 8.43491 17.9262 8.67351 19.5084 9.05947" stroke="#464C53" stroke-width="2" stroke-linecap="round" stroke-linejoin="round"/>
<path d="M9.06079 13.767C10.399 13.5564 11.772 13.4512 13.159 13.4512C13.6399 13.4512 14.1208 13.4652 14.6017 13.4863C16.2814 13.5775 17.9262 13.8161 19.5084 14.202" stroke="#464C53" stroke-width="2" stroke-linecap="round" stroke-linejoin="round"/>
<path d="M9.06079 18.9115C10.399 18.701 11.772 18.5957 13.159 18.5957C13.6399 18.5957 14.1208 18.6097 14.6017 18.6308C16.2814 18.722 17.9262 18.9606 19.5084 19.3466" stroke="#464C53" stroke-width="2" stroke-linecap="round" stroke-linejoin="round"/>
<path d="M9.06079 24.0619C10.399 23.8514 11.772 23.7461 13.159 23.7461C13.6399 23.7461 14.1208 23.7601 14.6017 23.7812C16.2814 23.8724 17.9262 24.111 19.5084 24.497" stroke="#464C53" stroke-width="2" stroke-linecap="round" stroke-linejoin="round"/>
<path d="M36.7862 8.62438C35.448 8.41386 34.075 8.30859 32.688 8.30859C32.2071 8.30859 31.7262 8.32263 31.2453 8.34368C29.5656 8.43491 27.9207 8.67351 26.3386 9.05947" stroke="#464C53" stroke-width="2" stroke-linecap="round" stroke-linejoin="round"/>
<path d="M36.7862 13.767C35.448 13.5564 34.075 13.4512 32.688 13.4512C32.2071 13.4512 31.7262 13.4652 31.2453 13.4863C29.5656 13.5775 27.9207 13.8161 26.3386 14.202" stroke="#464C53" stroke-width="2" stroke-linecap="round" stroke-linejoin="round"/>
<path d="M36.7862 18.9115C35.448 18.701 34.075 18.5957 32.688 18.5957C32.2071 18.5957 31.7262 18.6097 31.2453 18.6308C29.5656 18.722 27.9207 18.9606 26.3386 19.3466" stroke="#464C53" stroke-width="2" stroke-linecap="round" stroke-linejoin="round"/>
<path d="M36.7862 24.0619C35.448 23.8514 34.075 23.7461 32.688 23.7461C32.2071 23.7461 31.7262 23.7601 31.2453 23.7812C29.5656 23.8724 27.9207 24.111 26.3386 24.497" stroke="#464C53" stroke-width="2" stroke-linecap="round" stroke-linejoin="round"/>
<path d="M31.2103 1.44475C34.4651 1.26931 38.2776 1.62019 41.1212 2.39212V32.8974C38.2776 32.1325 34.4651 31.7816 31.2103 31.95C28.29 32.1044 25.523 32.6658 23 33.55V3.04475C25.523 2.16054 28.29 1.59914 31.2103 1.44475Z" stroke="#464C53" stroke-width="2" stroke-linecap="round" stroke-linejoin="round"/>
<path d="M5.00335 6.66602H0.821533V37.5432H20.26C20.8524 38.5186 21.9118 39.1783 23.1246 39.1783C24.3373 39.1783 25.3967 38.5186 25.9891 37.5432H45.4276V6.66602H41.2458" stroke="#034DA2" stroke-width="2" stroke-linecap="round" stroke-linejoin="round"/>
</g>
<defs>
<clipPath id="clip0_465_47055">
<rect width="46" height="40" fill="white"/>
</clipPath>
</defs>
</svg>
