<svg width="48" height="49" viewBox="0 0 48 49" fill="none" xmlns="http://www.w3.org/2000/svg">
<path d="M24 33.8631L4 33V43L24 42.1369L44 43V33L24 33.8631Z" fill="white" stroke="#464C53" stroke-width="2" stroke-linecap="round" stroke-linejoin="round"/>
<path d="M36.7021 10H11.2979L8 25.661H10.6372C15.469 25.661 20.1652 27.1864 24 30C27.8348 27.1864 32.531 25.661 37.3628 25.661H40L36.7021 10Z" fill="white" stroke="#464C53" stroke-width="2" stroke-linecap="round" stroke-linejoin="round"/>
<path d="M47 10.0779H38.7214L23.9591 4L9.38383 10.0779H1V13.5033H1.16955L1 13.5688L23.9123 23L46.696 13.5033H47V10.0779Z" fill="white" stroke="#464C53" stroke-width="2" stroke-linecap="round" stroke-linejoin="round"/>
<path d="M47 10.0031L24 19L1 10.0031L24 1L47 10.0031Z" fill="white" stroke="#464C53" stroke-width="2" stroke-linecap="round" stroke-linejoin="round"/>
<path d="M24 11C25.6569 11 27 10.3284 27 9.5C27 8.67157 25.6569 8 24 8C22.3431 8 21 8.67157 21 9.5C21 10.3284 22.3431 11 24 11Z" fill="white" stroke="#034DA2" stroke-width="2" stroke-linecap="round" stroke-linejoin="round"/>
<path d="M27 10H39V18" stroke="#034DA2" stroke-width="2" stroke-linecap="round" stroke-linejoin="round"/>
<path d="M39 22C40.1046 22 41 21.1046 41 20C41 18.8954 40.1046 18 39 18C37.8954 18 37 18.8954 37 20C37 21.1046 37.8954 22 39 22Z" fill="white" stroke="#034DA2" stroke-width="2" stroke-linecap="round" stroke-linejoin="round"/>
<path d="M39 22C40.1024 22 41 22.7968 41 23.7754V30H37V23.7754C37 22.7968 37.8976 22 39 22Z" fill="white" stroke="#034DA2" stroke-width="2" stroke-linecap="round" stroke-linejoin="round"/>
<path d="M27 33H21V42H27V33Z" fill="white" stroke="#034DA2" stroke-width="2" stroke-linecap="round" stroke-linejoin="round"/>
<path d="M27 48L24.0031 45.7784L21 48V38H27V48Z" fill="white" stroke="#034DA2" stroke-width="2" stroke-linecap="round" stroke-linejoin="round"/>
</svg>
