<svg width="40" height="40" viewBox="0 0 40 40" fill="none" xmlns="http://www.w3.org/2000/svg">
<path d="M21 29.0421L30.5372 38L30.5929 31.0428L38 30.9952L30.5524 24" stroke="#034DA2" stroke-width="2" stroke-linecap="round" stroke-linejoin="round"/>
<path d="M9.4454 24L2 30.9952L9.40494 31.0428L9.46058 38L19 29.0373" stroke="#034DA2" stroke-width="2" stroke-linecap="round" stroke-linejoin="round"/>
<path d="M20 29C12.2822 29 6 22.7231 6 15C6 7.27695 12.2822 1 20 1C27.7178 1 34 7.28219 34 15C34 22.7178 27.7178 29 20 29Z" stroke="#464C53" stroke-width="2" stroke-linecap="round" stroke-linejoin="round"/>
<path d="M20 21C16.6902 21 14 18.3098 14 15C14 11.6902 16.6902 9 20 9C23.3098 9 26 11.6902 26 15C26 18.3098 23.3098 21 20 21Z" stroke="#464C53" stroke-width="2" stroke-linecap="round" stroke-linejoin="round"/>
</svg>
