<svg width="36" height="36" viewBox="0 0 36 36" fill="none" xmlns="http://www.w3.org/2000/svg">
<g clip-path="url(#clip0_260_9851)">
<path d="M22.0822 35.9998H19.2729C17.7236 35.9998 16.4668 34.7302 16.4668 33.168C16.4668 31.6059 17.7268 30.333 19.2729 30.333H22.0822C23.6314 30.333 24.8882 31.6027 24.8882 33.168C24.8882 34.7334 23.6282 35.9998 22.0822 35.9998ZM19.2697 31.6187C18.4307 31.6187 17.7493 32.313 17.7493 33.168C17.7493 34.023 18.4307 34.7141 19.2697 34.7141H22.0789C22.9179 34.7141 23.5993 34.0198 23.5993 33.168C23.5993 32.3162 22.9179 31.6187 22.0789 31.6187H19.2697Z" fill="white"/>
<path d="M6.86567 26.4827H3.19175C1.43353 26.4827 0.00317383 25.0363 0.00317383 23.262V17.4795C0.00317383 15.702 1.43353 14.2588 3.19175 14.2588H6.86567C7.21925 14.2588 7.50853 14.5481 7.50853 14.9016V25.8431C7.50853 26.1966 7.21925 26.4859 6.86567 26.4859V26.4827ZM3.18853 15.5413C2.13746 15.5413 1.28567 16.4091 1.28567 17.4763V23.2588C1.28567 24.3259 2.14067 25.1938 3.18853 25.1938H6.2196V15.5381H3.18853V15.5413Z" fill="white"/>
<path d="M32.8114 26.4825H29.1375C28.7839 26.4825 28.4946 26.1932 28.4946 25.8397V14.8982C28.4946 14.5447 28.7839 14.2554 29.1375 14.2554H32.8146C34.5728 14.2554 36.0032 15.7018 36.0032 17.4761V23.2586C36.0032 25.0361 34.5728 26.4793 32.8146 26.4793L32.8114 26.4825ZM29.7771 25.1968H32.8082C33.8593 25.1968 34.7111 24.3289 34.7111 23.2618V17.4793C34.7111 16.4122 33.8561 15.5443 32.8082 15.5443H29.7739V25.2L29.7771 25.1968Z" fill="white"/>
<path d="M24.3033 33.8497C23.9497 33.8497 23.6604 33.5605 23.6604 33.2069C23.6604 32.8533 23.9497 32.564 24.3033 32.564C28.1572 32.564 31.3811 29.6422 31.8086 25.769C31.8472 25.4155 32.1654 25.1647 32.519 25.2001C32.8725 25.2387 33.1265 25.5569 33.0879 25.9105C32.5897 30.4362 28.8161 33.853 24.3065 33.853L24.3033 33.8497Z" fill="white"/>
<path d="M32.4611 15.5411C32.1236 15.5411 31.8407 15.2775 31.8214 14.9368C31.3522 7.28036 25.2804 1.28571 18 1.28571C10.7197 1.28571 4.64787 7.28357 4.17859 14.9368C4.15609 15.2904 3.84751 15.5668 3.49716 15.5379C3.14359 15.5154 2.87359 15.21 2.89609 14.8564C3.40716 6.52822 10.0414 0 18 0C25.9586 0 32.5929 6.52821 33.1039 14.8596C33.1264 15.2132 32.8564 15.5186 32.5029 15.5411C32.49 15.5411 32.4772 15.5411 32.4643 15.5411H32.4611Z" fill="white"/>
</g>
<defs>
<clipPath id="clip0_260_9851">
<rect width="36" height="36" fill="white"/>
</clipPath>
</defs>
</svg>
