<svg width="48" height="48" viewBox="0 0 48 48" fill="none" xmlns="http://www.w3.org/2000/svg">
<g clip-path="url(#clip0_283_33768)">
<rect width="48" height="48" rx="24" fill="#FFE812"/>
<path d="M24 14C17.9248 14 13 17.8254 13 22.5442C13 25.595 15.0589 28.2719 18.156 29.7835C17.9875 30.356 17.0733 33.4663 17.0369 33.7106C17.0369 33.7106 17.015 33.8942 17.1357 33.9642C17.2564 34.0343 17.3983 33.9799 17.3983 33.9799C17.7444 33.9322 21.4115 31.3946 22.0462 30.954C22.6803 31.0424 23.3332 31.0884 24 31.0884C30.0752 31.0884 35 27.2631 35 22.5442C35 17.8254 30.0752 14 24 14Z" fill="black"/>
</g>
<defs>
<clipPath id="clip0_283_33768">
<rect width="48" height="48" rx="24" fill="white"/>
</clipPath>
</defs>
</svg>
