<svg width="64" height="64" viewBox="0 0 64 64" fill="none" xmlns="http://www.w3.org/2000/svg">
<rect width="64" height="64" rx="32" fill="#E8ECFC"/>
<g clip-path="url(#clip0_465_75050)">
<path d="M31.985 18C27.9914 18 24.7539 21.1811 24.7539 25.1053V31.9855C24.7539 32.1675 24.8204 32.3438 24.9412 32.4822L24.9444 32.4859C25.0916 32.6544 25.3069 32.7519 25.5333 32.7519H26.2325C26.4589 32.7519 26.6737 32.6549 26.8215 32.4859C26.9423 32.3474 27.0088 32.1716 27.0088 31.9891V25.1053C27.0088 23.7991 27.5265 22.5707 28.4668 21.6467C29.4072 20.7233 30.6568 20.2141 31.9866 20.2141C33.3085 20.2141 34.5713 20.7279 35.5059 21.6462C36.4463 22.5702 36.9639 23.7981 36.9639 25.1047V40.3575H39.2178V25.1053C39.2162 21.1811 35.9787 18 31.985 18Z" fill="#0A195B"/>
<path d="M31.9852 26.3545C26.4707 26.3545 22 30.7474 22 36.1659C22 41.5844 26.4707 45.9773 31.9852 45.9773C37.4997 45.9773 41.9704 41.5844 41.9704 36.1659C41.9704 30.7474 37.4997 26.3545 31.9852 26.3545ZM33.2744 36.6865V39.3455H30.696V36.6865C30.2005 36.3085 29.8813 35.7179 29.8813 35.0537C29.8813 33.9119 30.8232 32.9863 31.9852 32.9863C33.1472 32.9863 34.0892 33.9119 34.0892 35.0537C34.0892 35.7179 33.7699 36.3085 33.2744 36.6865Z" fill="#0A195B"/>
</g>
<defs>
<clipPath id="clip0_465_75050">
<rect width="20" height="28" fill="white" transform="translate(22 18)"/>
</clipPath>
</defs>
</svg>
