<svg width="30" height="30" viewBox="0 0 30 30" fill="none" xmlns="http://www.w3.org/2000/svg">
<g clip-path="url(#clip0_465_45379)">
<path d="M12.1765 15.0227H23.2425" stroke="#464C53" stroke-width="1.5" stroke-linecap="round" stroke-linejoin="round"/>
<path d="M13.3486 17.9177H23.2424" stroke="#464C53" stroke-width="1.5" stroke-linecap="round" stroke-linejoin="round"/>
<path d="M15.6646 20.8154H23.2424" stroke="#464C53" stroke-width="1.5" stroke-linecap="round" stroke-linejoin="round"/>
<path d="M19.8057 23.7129H23.2424" stroke="#464C53" stroke-width="1.5" stroke-linecap="round" stroke-linejoin="round"/>
<path d="M12.1765 10.2485H15.6132" stroke="#464C53" stroke-width="1.5" stroke-linecap="round" stroke-linejoin="round"/>
<path d="M7.85559 12.5274V2.97017L19.1982 2.94165" stroke="#464C53" stroke-width="1.5" stroke-linecap="round" stroke-linejoin="round"/>
<path d="M27.0271 10.7676V28.4503L7.85559 28.4817V19.1184" stroke="#464C53" stroke-width="1.5" stroke-linecap="round" stroke-linejoin="round"/>
<path d="M22.9801 12.5302C26.039 12.5302 28.5188 10.0505 28.5188 6.99156C28.5188 3.93263 26.039 1.45288 22.9801 1.45288C19.9212 1.45288 17.4414 3.93263 17.4414 6.99156C17.4414 10.0505 19.9212 12.5302 22.9801 12.5302Z" stroke="#034DA2" stroke-width="1.5" stroke-linecap="round" stroke-linejoin="round"/>
<path d="M24.3947 8.87674L24.1209 8.15803H21.7965L21.5227 8.891C21.4172 9.17621 21.3259 9.37015 21.2489 9.46997C21.1747 9.56979 21.0493 9.62113 20.8781 9.62113C20.7327 9.62113 20.6043 9.56694 20.4931 9.46141C20.3819 9.35589 20.3248 9.23325 20.3248 9.0992C20.3248 9.0222 20.3391 8.93949 20.3648 8.85678C20.3904 8.77407 20.4332 8.65714 20.4931 8.50883L21.9562 4.79261C21.999 4.68708 22.0475 4.55874 22.1074 4.40758C22.1673 4.25927 22.2271 4.13378 22.2956 4.03396C22.364 3.93414 22.4496 3.85428 22.558 3.79439C22.6664 3.7345 22.8004 3.70312 22.9573 3.70312C23.1141 3.70312 23.2539 3.7345 23.3623 3.79439C23.4706 3.85428 23.5562 3.93414 23.6247 4.03111C23.6931 4.12808 23.7473 4.23075 23.7929 4.34198C23.8386 4.45321 23.8956 4.60152 23.9669 4.78405L25.4614 8.4746C25.5783 8.75696 25.6382 8.95945 25.6382 9.0878C25.6382 9.21614 25.584 9.34163 25.4728 9.45286C25.3615 9.56409 25.2275 9.61828 25.0735 9.61828C24.9822 9.61828 24.9052 9.60116 24.8396 9.56979C24.774 9.53842 24.7198 9.49279 24.6771 9.43574C24.6343 9.3787 24.5858 9.29314 24.5345 9.17906C24.4831 9.06213 24.4403 8.96231 24.4033 8.87389L24.3947 8.87674ZM22.1017 7.28815H23.81L22.9487 4.92665L22.1017 7.28815Z" fill="#034DA2"/>
<path d="M12.4823 23.7446L15.6626 20.5642L4.9176 9.81921L1.73726 12.9996L12.4823 23.7446Z" stroke="#034DA2" stroke-width="1.5" stroke-linecap="round" stroke-linejoin="round"/>
<path d="M15.6646 20.5645L12.4817 23.7445L17.1648 25.2447L15.6646 20.5645Z" stroke="#034DA2" stroke-width="1.5" stroke-linecap="round" stroke-linejoin="round"/>
<path d="M8.20352 13.1035L5.02063 16.2836" stroke="#034DA2" stroke-width="1.5" stroke-linecap="round" stroke-linejoin="round"/>
</g>
<defs>
<clipPath id="clip0_465_45379">
<rect width="30" height="30" fill="white"/>
</clipPath>
</defs>
</svg>
