<svg width="28" height="28" viewBox="0 0 28 28" fill="none" xmlns="http://www.w3.org/2000/svg">
<path d="M13.0275 22C12.7015 22 12.425 21.8861 12.1979 21.6584C11.9708 21.4307 11.8573 21.1534 11.8573 20.8266V15.0452L6.26299 7.87511C5.96556 7.48405 5.92041 7.07372 6.12756 6.64413C6.33455 6.21471 6.68945 6 7.19225 6H20.8078C21.3106 6 21.6654 6.21471 21.8724 6.64413C22.0796 7.07372 22.0344 7.48405 21.737 7.87511L16.1427 15.0452V20.8907C16.1427 21.2058 16.037 21.4696 15.8255 21.6818C15.6138 21.8939 15.3508 22 15.0365 22H13.0275Z" fill="#0A195B"/>
</svg>
