<svg width="32" height="30" viewBox="0 0 32 30" fill="none" xmlns="http://www.w3.org/2000/svg">
<g clip-path="url(#clip0_465_45633)">
<path d="M1 3H31V29H8.01857C4.14601 29 1 25.8941 1 22.0708V3Z" stroke="#464C53" stroke-width="1.5" stroke-miterlimit="10" stroke-linecap="round"/>
<path d="M7 1V6" stroke="#034DA2" stroke-width="1.5" stroke-miterlimit="10" stroke-linecap="round"/>
<path d="M13 1V6" stroke="#034DA2" stroke-width="1.5" stroke-miterlimit="10" stroke-linecap="round"/>
<path d="M19 1V6" stroke="#034DA2" stroke-width="1.5" stroke-miterlimit="10" stroke-linecap="round"/>
<path d="M25 1V6" stroke="#034DA2" stroke-width="1.5" stroke-miterlimit="10" stroke-linecap="round"/>
<path d="M9.75 11.25V14.75H6.25V11.25H9.75Z" stroke="#464C53" stroke-width="1.5" stroke-miterlimit="10" stroke-linecap="round"/>
<path d="M17.75 11.25V14.75H14.25V11.25H17.75Z" stroke="#464C53" stroke-width="1.5" stroke-miterlimit="10" stroke-linecap="round"/>
<path d="M25.75 11.25V14.75H22.25V11.25H25.75Z" stroke="#464C53" stroke-width="1.5" stroke-miterlimit="10" stroke-linecap="round"/>
<path d="M9.75 19.25V22.75H6.25V19.25H9.75Z" stroke="#464C53" stroke-width="1.5" stroke-miterlimit="10" stroke-linecap="round"/>
<path d="M17.75 19.25V22.75H14.25V19.25H17.75Z" stroke="#464C53" stroke-width="1.5" stroke-miterlimit="10" stroke-linecap="round"/>
<path d="M25.75 19.25V22.75H22.25V19.25H25.75Z" fill="#ECF0F1" stroke="#034DA2" stroke-width="1.5" stroke-miterlimit="10" stroke-linecap="round"/>
</g>
<defs>
<clipPath id="clip0_465_45633">
<rect width="32" height="30" fill="white"/>
</clipPath>
</defs>
</svg>
