<svg width="34" height="25" viewBox="0 0 34 25" fill="none" xmlns="http://www.w3.org/2000/svg">
<g clip-path="url(#clip0_465_45622)">
<path d="M3.4043 15.8945V19.7522H22.8584H30.5202V5.54883" stroke="#464C53" stroke-width="1.5" stroke-linecap="round" stroke-linejoin="round"/>
<path d="M5.92773 20.2029V24.0607H25.3946H33.0436V9.84473" stroke="#464C53" stroke-width="1.5" stroke-linecap="round" stroke-linejoin="round"/>
<path d="M11.4478 5.61129L12.4805 9.76961L13.4111 5.91189C13.5131 5.51109 13.5896 5.23554 13.6278 5.08524C13.6661 4.93494 13.768 4.79716 13.8955 4.65939C14.023 4.52161 14.2142 4.45898 14.4437 4.45898C14.6732 4.45898 14.8644 4.52161 14.9919 4.65939C15.1194 4.79716 15.2214 4.93494 15.2724 5.09776C15.3233 5.26059 15.3998 5.52361 15.5018 5.91189L16.4325 9.76961L17.4778 5.61129C17.5416 5.31069 17.6053 5.09776 17.6436 4.95999C17.6818 4.82221 17.7583 4.70949 17.8603 4.60929C17.9623 4.50908 18.1025 4.45898 18.2937 4.45898C18.485 4.45898 18.6507 4.53413 18.7909 4.68444C18.9311 4.83474 18.9949 5.02261 18.9949 5.23554C18.9949 5.42341 18.9311 5.71149 18.8164 6.09977L17.5288 10.5587C17.4141 10.9344 17.3248 11.21 17.2739 11.3728C17.2229 11.5356 17.1209 11.6859 16.9806 11.8237C16.8404 11.9615 16.6619 12.0241 16.4325 12.0241C16.203 12.0241 16.0118 11.949 15.8715 11.8112C15.7313 11.6734 15.6293 11.4981 15.5656 11.2977C15.5018 11.0973 15.4253 10.8217 15.3488 10.4961L14.4437 6.87632L13.5641 10.4961C13.4493 10.9971 13.3218 11.3853 13.1944 11.6358C13.0669 11.8863 12.8247 12.0241 12.4805 12.0241C12.302 12.0241 12.1617 11.9865 12.0343 11.8989C11.9068 11.8112 11.8175 11.711 11.7283 11.5607C11.6391 11.4104 11.5753 11.235 11.5116 11.0346C11.4478 10.8342 11.3968 10.6714 11.3713 10.5587L10.0965 6.09977C9.96902 5.68644 9.90527 5.39836 9.90527 5.23554C9.90527 5.03514 9.96902 4.85979 10.1092 4.69696C10.2495 4.53413 10.4152 4.45898 10.6064 4.45898C10.8742 4.45898 11.0399 4.54666 11.1419 4.72201C11.2439 4.89736 11.3331 5.19796 11.4351 5.62381L11.4478 5.61129Z" fill="#034DA2"/>
<path d="M16.4327 12.0991C16.1778 12.0991 15.961 12.0239 15.8081 11.8611C15.6678 11.7108 15.5531 11.5229 15.4893 11.31C15.4256 11.097 15.3491 10.834 15.2726 10.5084L14.444 7.18923L13.6408 10.5084C13.5261 11.0219 13.3986 11.4102 13.2584 11.6607C13.1054 11.9488 12.8504 12.0865 12.4807 12.0865C12.2895 12.0865 12.1365 12.0364 11.9963 11.9487C11.8688 11.8611 11.7541 11.7358 11.6648 11.5855C11.5883 11.4352 11.5118 11.2599 11.4481 11.0469C11.3844 10.8465 11.3334 10.6837 11.3079 10.571L10.033 6.11208C9.90554 5.68622 9.8418 5.39815 9.8418 5.2228C9.8418 5.00987 9.91829 4.80947 10.0585 4.63412C10.2115 4.45877 10.39 4.37109 10.6194 4.37109C10.9127 4.37109 11.1166 4.47129 11.2186 4.67169C11.3079 4.84705 11.4099 5.16017 11.5246 5.58602L12.4807 9.44374L13.3476 5.88662C13.4496 5.48582 13.5261 5.21027 13.5771 5.05997C13.6281 4.89715 13.7301 4.74685 13.8703 4.60907C14.0105 4.45877 14.2145 4.38362 14.4695 4.38362C14.7244 4.38362 14.9284 4.45877 15.0814 4.60907C15.2216 4.74685 15.3236 4.90967 15.3746 5.0725C15.4256 5.23532 15.5021 5.51087 15.6041 5.88662L16.471 9.44374L17.4398 5.58602C17.5036 5.28542 17.5673 5.05997 17.6056 4.93472C17.6566 4.78442 17.7331 4.65917 17.835 4.54644C17.9498 4.43372 18.1155 4.37109 18.3195 4.37109C18.5235 4.37109 18.7147 4.45877 18.8677 4.62159C19.0207 4.78442 19.0971 4.98482 19.0971 5.21027C19.0971 5.41067 19.0334 5.69875 18.9187 6.09955L17.6311 10.5585C17.5163 10.9467 17.4271 11.2098 17.3634 11.3851C17.2996 11.5605 17.1976 11.7233 17.0574 11.8611C16.9044 12.0114 16.7132 12.0865 16.4582 12.0865L16.4327 12.0991ZM14.4567 6.78843C14.4567 6.78843 14.5205 6.81348 14.5332 6.85105L15.4383 10.4708C15.5148 10.7964 15.5913 11.0595 15.6551 11.2599C15.7188 11.4477 15.8081 11.6106 15.9355 11.7483C16.063 11.8736 16.2287 11.9362 16.4455 11.9362C16.6622 11.9362 16.8152 11.8736 16.9427 11.7609C17.0701 11.6356 17.1594 11.4978 17.2231 11.335C17.2869 11.1722 17.3634 10.9092 17.4781 10.5209L18.7657 6.06198C18.8804 5.68622 18.9442 5.39815 18.9442 5.2228C18.9442 5.04745 18.8804 4.8721 18.7529 4.7218C18.6255 4.58402 18.4852 4.52139 18.3195 4.52139C18.1538 4.52139 18.0263 4.57149 17.937 4.64664C17.8478 4.73432 17.7841 4.84705 17.7458 4.9723C17.7076 5.11007 17.6438 5.323 17.5801 5.6236L16.5347 9.78192C16.5347 9.78192 16.4965 9.84454 16.4582 9.84454C16.4582 9.84454 16.3945 9.81949 16.3817 9.78192L15.4383 5.9242C15.3491 5.54845 15.2726 5.2729 15.2089 5.1226C15.1579 4.9723 15.0686 4.83452 14.9412 4.70927C14.8264 4.58402 14.6607 4.53392 14.444 4.53392C14.2272 4.53392 14.0743 4.59654 13.9468 4.70927C13.8193 4.83452 13.7428 4.9723 13.6918 5.09755C13.6408 5.24785 13.5643 5.5234 13.4751 5.9242L12.5445 9.78192C12.5445 9.78192 12.5062 9.84454 12.468 9.84454C12.468 9.84454 12.4042 9.81949 12.3915 9.78192L11.3589 5.6236C11.2569 5.21027 11.1549 4.90967 11.0656 4.74685C10.9892 4.59654 10.8362 4.52139 10.6067 4.52139C10.4282 4.52139 10.288 4.59654 10.1733 4.73432C10.0458 4.88462 9.98203 5.04745 9.98203 5.2228C9.98203 5.3731 10.0458 5.66117 10.1733 6.06198L11.4481 10.5209C11.4863 10.6336 11.5246 10.7964 11.5883 10.9968C11.6521 11.1972 11.7158 11.3726 11.7923 11.5104C11.8688 11.6481 11.958 11.7483 12.0728 11.8235C12.1875 11.8986 12.315 11.9362 12.468 11.9362C12.7739 11.9362 12.9907 11.8235 13.1054 11.5855C13.2329 11.335 13.3604 10.9593 13.4751 10.4583L14.3547 6.83853C14.3547 6.83853 14.393 6.7759 14.4312 6.7759L14.4567 6.78843Z" fill="#034DA2"/>
<path d="M19.6071 8.06599H9.42115C9.00046 8.06599 8.65625 7.72782 8.65625 7.31449C8.65625 6.90117 9.00046 6.56299 9.42115 6.56299H19.6071C20.0278 6.56299 20.372 6.90117 20.372 7.31449C20.372 7.72782 20.0278 8.06599 19.6071 8.06599Z" fill="#034DA2"/>
<path d="M20.4101 15.5437H28.0719V0.939453H0.956055V15.5437H20.4101Z" stroke="#034DA2" stroke-width="1.5" stroke-linecap="round" stroke-linejoin="round"/>
</g>
<defs>
<clipPath id="clip0_465_45622">
<rect width="34" height="25" fill="white"/>
</clipPath>
</defs>
</svg>
