<svg width="30" height="29" viewBox="0 0 30 29" fill="none" xmlns="http://www.w3.org/2000/svg">
<path d="M4.95453 24.0475C8.75424 27.8468 14.2499 28.9062 18.9986 27.2295C19.677 26.9894 20.3401 26.696 20.9804 26.3454L27.8595 27.8582L26.3465 20.9798C29.1515 15.8543 28.3892 9.29603 24.0483 4.95557C18.7737 -0.318523 10.2253 -0.318523 4.95453 4.95557C-0.316272 10.2297 -0.320084 18.7772 4.95453 24.0475Z" stroke="#464C53" stroke-width="1.5" stroke-linecap="round" stroke-linejoin="round"/>
<path d="M15 5L16.2343 7.63153L19 8.05727L16.9981 10.1049L17.4725 13L15 11.6336L12.5275 13L12.9981 10.1049L11 8.05727L13.7618 7.63153L15 5Z" stroke="#034DA2" stroke-width="1.5" stroke-linecap="round" stroke-linejoin="round"/>
<path d="M9 13L10.2343 15.6315L13 16.0573L10.9981 18.1049L11.4725 21L9 19.6336L6.52748 21L6.99807 18.1049L5 16.0573L7.76181 15.6315L9 13Z" stroke="#034DA2" stroke-width="1.5" stroke-linecap="round" stroke-linejoin="round"/>
<path d="M21 13L22.2343 15.6315L25 16.0573L22.9981 18.1049L23.4725 21L21 19.6336L18.5275 21L18.9981 18.1049L17 16.0573L19.7618 15.6315L21 13Z" stroke="#034DA2" stroke-width="1.5" stroke-linecap="round" stroke-linejoin="round"/>
</svg>
