<svg width="18" height="18" viewBox="0 0 18 18" fill="none" xmlns="http://www.w3.org/2000/svg">
<g clip-path="url(#clip0_121_5136)">
<path d="M17 9C17 13.42 13.42 17 9 17C4.58 17 1 13.42 1 9C1 4.58 4.58 1 9 1C13.42 1 17 4.58 17 9Z" stroke="#464C53" stroke-width="1.5" stroke-linecap="round" stroke-linejoin="round"/>
<path d="M11 6C11 7.10582 10.1058 8 9 8C7.89418 8 7 7.10582 7 6C7 4.89418 7.89418 4 9 4C10.1058 4 11 4.89418 11 6Z" stroke="#464C53" stroke-width="1.5" stroke-linecap="round" stroke-linejoin="round"/>
<path d="M10.5445 10H7.45549C6.6543 10 6 10.4577 6 11.0251V13H12V11.0251C12 10.4608 11.3501 10 10.5445 10Z" stroke="#464C53" stroke-width="1.5" stroke-linecap="round" stroke-linejoin="round"/>
</g>
<defs>
<clipPath id="clip0_121_5136">
<rect width="18" height="18" fill="white"/>
</clipPath>
</defs>
</svg>
