<svg width="16" height="16" viewBox="0 0 16 16" fill="none" xmlns="http://www.w3.org/2000/svg">
<g clip-path="url(#clip0_431_56570)">
<path d="M15.0667 16C13.2148 16 11.3852 15.5963 9.57778 14.7889C7.77037 13.9815 6.12593 12.837 4.64444 11.3556C3.16296 9.87407 2.01852 8.22963 1.21111 6.42222C0.403704 4.61481 0 2.78519 0 0.933333C0 0.666667 0.0888889 0.444444 0.266667 0.266667C0.444444 0.0888889 0.666667 0 0.933333 0H4.53333C4.74074 0 4.92593 0.0703704 5.08889 0.211111C5.25185 0.351852 5.34815 0.518519 5.37778 0.711111L5.95556 3.82222C5.98519 4.05926 5.97778 4.25926 5.93333 4.42222C5.88889 4.58519 5.80741 4.72593 5.68889 4.84444L3.53333 7.02222C3.82963 7.57037 4.18148 8.1 4.58889 8.61111C4.9963 9.12222 5.44444 9.61481 5.93333 10.0889C6.39259 10.5481 6.87407 10.9741 7.37778 11.3667C7.88148 11.7593 8.41481 12.1185 8.97778 12.4444L11.0667 10.3556C11.2 10.2222 11.3741 10.1222 11.5889 10.0556C11.8037 9.98889 12.0148 9.97037 12.2222 10L15.2889 10.6222C15.4963 10.6815 15.6667 10.7889 15.8 10.9444C15.9333 11.1 16 11.2741 16 11.4667V15.0667C16 15.3333 15.9111 15.5556 15.7333 15.7333C15.5556 15.9111 15.3333 16 15.0667 16Z" fill="#034DA2"/>
</g>
<defs>
<clipPath id="clip0_431_56570">
<rect width="16" height="16" fill="white"/>
</clipPath>
</defs>
</svg>
