<svg width="50" height="48" viewBox="0 0 50 48" fill="none" xmlns="http://www.w3.org/2000/svg">
<path d="M48.7789 9.00488H1.08179V45.6673H48.7789V9.00488Z" fill="white"/>
<path d="M48.7788 46.752H1.08173C0.485577 46.752 0 46.2672 0 45.672V9.0048C0 8.4096 0.485577 7.9248 1.08173 7.9248H48.7788C49.375 7.9248 49.8606 8.4096 49.8606 9.0048V45.6672C49.8606 46.2624 49.375 46.7472 48.7788 46.7472V46.752ZM2.16346 44.592H47.6971V10.0848H2.16346V44.5872V44.592Z" fill="#464C53"/>
<path d="M15.548 29.0209C17.7307 29.0209 19.5048 27.2545 19.5048 25.0705C19.5048 22.8865 17.7355 21.1201 15.548 21.1201C13.3605 21.1201 11.5913 22.8865 11.5913 25.0705C11.5913 27.2545 13.3605 29.0209 15.548 29.0209Z" fill="#464C53"/>
<path d="M20.8315 30.4468H18.4277L15.5479 37.5748L12.6681 30.4468H10.2642C7.78347 30.4468 5.76904 32.458 5.76904 34.9348V41.1076H25.3267V34.9348C25.3267 32.458 23.3123 30.4468 20.8315 30.4468Z" fill="#464C53"/>
<path d="M42.8651 25.2H34.7353C34.1391 25.2 33.6536 24.7152 33.6536 24.12C33.6536 23.5248 34.1391 23.04 34.7353 23.04H42.8651C43.4613 23.04 43.9468 23.5248 43.9468 24.12C43.9468 24.7152 43.4613 25.2 42.8651 25.2Z" fill="#034DA2"/>
<path d="M42.8651 32.4671H34.7353C34.1391 32.4671 33.6536 31.9823 33.6536 31.3871C33.6536 30.7919 34.1391 30.3071 34.7353 30.3071H42.8651C43.4613 30.3071 43.9468 30.7919 43.9468 31.3871C43.9468 31.9823 43.4613 32.4671 42.8651 32.4671Z" fill="#034DA2"/>
<path d="M42.8651 39.7391H34.7353C34.1391 39.7391 33.6536 39.2543 33.6536 38.6591C33.6536 38.0639 34.1391 37.5791 34.7353 37.5791H42.8651C43.4613 37.5791 43.9468 38.0639 43.9468 38.6591C43.9468 39.2543 43.4613 39.7391 42.8651 39.7391Z" fill="#034DA2"/>
<path d="M45.7259 12.0337H4.1394V18.0337H45.7259V12.0337Z" fill="#034DA2"/>
<path d="M28.1779 10.9536C28.1779 12.744 26.726 14.1936 24.9327 14.1936C23.1394 14.1936 21.6875 12.744 21.6875 10.9536V5.19361C21.6875 3.40321 23.1394 1.95361 24.9327 1.95361C26.726 1.95361 28.1779 3.40321 28.1779 5.19361V10.9536Z" fill="white"/>
<path d="M24.9326 15.2735C22.548 15.2735 20.6057 13.3343 20.6057 10.9535V5.19353C20.6057 2.81274 22.548 0.873535 24.9326 0.873535C27.3173 0.873535 29.2596 2.81274 29.2596 5.19353V10.9535C29.2596 13.3343 27.3173 15.2735 24.9326 15.2735ZM24.9326 3.03354C23.7403 3.03354 22.7692 4.00313 22.7692 5.19353V10.9535C22.7692 12.1439 23.7403 13.1135 24.9326 13.1135C26.1249 13.1135 27.0961 12.1439 27.0961 10.9535V5.19353C27.0961 4.00313 26.1249 3.03354 24.9326 3.03354Z" fill="#464C53"/>
<path d="M25.3511 7.47348H24.5097C23.9136 7.47348 23.428 6.98868 23.428 6.39348C23.428 5.79828 23.9136 5.31348 24.5097 5.31348H25.3511C25.9472 5.31348 26.4328 5.79828 26.4328 6.39348C26.4328 6.98868 25.9472 7.47348 25.3511 7.47348Z" fill="#464C53"/>
<path d="M25.3511 10.7137H24.5097C23.9136 10.7137 23.428 10.2289 23.428 9.63371C23.428 9.03851 23.9136 8.55371 24.5097 8.55371H25.3511C25.9472 8.55371 26.4328 9.03851 26.4328 9.63371C26.4328 10.2289 25.9472 10.7137 25.3511 10.7137Z" fill="#464C53"/>
</svg>
