<svg width="12" height="13" viewBox="0 0 12 13" fill="none" xmlns="http://www.w3.org/2000/svg">
<g clip-path="url(#clip0_742_12646)">
<path d="M5.38167 0.230371L0.381667 4.46596C0.14 4.67073 0 4.98328 0 5.31379V12.4611C0 12.7593 0.223333 13 0.5 13H3.89667C4.17333 13 4.39667 12.7593 4.39667 12.4611V8.07824C4.39667 7.78006 4.62 7.53936 4.89667 7.53936H7.10333C7.38 7.53936 7.60333 7.78006 7.60333 8.07824V12.4611C7.60333 12.7593 7.82667 13 8.10333 13H11.5C11.7767 13 12 12.7593 12 12.4611V5.31379C12 4.98328 11.8583 4.67073 11.6183 4.46596L6.61833 0.230371C6.255 -0.0767902 5.745 -0.0767902 5.38167 0.230371Z" fill="#0A195B"/>
</g>
<defs>
<clipPath id="clip0_742_12646">
<rect width="12" height="13" fill="white"/>
</clipPath>
</defs>
</svg>
