<svg width="48" height="48" viewBox="0 0 48 48" fill="none" xmlns="http://www.w3.org/2000/svg">
<g clip-path="url(#clip0_719_12840)">
<path d="M9.00937 21.3184H5.44629V41.243H9.00937V21.3184Z" fill="white"/>
<path d="M9.00925 42.2769H5.44618C4.87387 42.2769 4.40771 41.8108 4.40771 41.2385V21.3139C4.40771 20.7415 4.87387 20.2754 5.44618 20.2754H9.00925C9.58156 20.2754 10.0477 20.7415 10.0477 21.3139V41.2385C10.0477 41.8108 9.58156 42.2769 9.00925 42.2769ZM6.48464 40.2H7.97079V22.3523H6.48464V40.2Z" fill="#034DA2"/>
<path d="M10.2784 22.3572H4.17225C3.59994 22.3572 3.13379 21.891 3.13379 21.3187C3.13379 20.7464 3.59994 20.2803 4.17225 20.2803H10.2784C10.8507 20.2803 11.3169 20.7464 11.3169 21.3187C11.3169 21.891 10.8507 22.3572 10.2784 22.3572Z" fill="#464C53"/>
<path d="M20.1463 21.3184H16.5833V41.243H20.1463V21.3184Z" fill="white"/>
<path d="M20.1462 42.2769H16.5831C16.0108 42.2769 15.5447 41.8108 15.5447 41.2385V21.3139C15.5447 20.7415 16.0108 20.2754 16.5831 20.2754H20.1462C20.7185 20.2754 21.1847 20.7415 21.1847 21.3139V41.2385C21.1847 41.8108 20.7185 42.2769 20.1462 42.2769ZM17.6216 40.2H19.1078V22.3523H17.6216V40.2Z" fill="#034DA2"/>
<path d="M21.4154 22.3572H15.3092C14.7369 22.3572 14.2708 21.891 14.2708 21.3187C14.2708 20.7464 14.7369 20.2803 15.3092 20.2803H21.4154C21.9877 20.2803 22.4538 20.7464 22.4538 21.3187C22.4538 21.891 21.9877 22.3572 21.4154 22.3572Z" fill="#464C53"/>
<path d="M31.2833 21.3184H27.7202V41.243H31.2833V21.3184Z" fill="white"/>
<path d="M31.2832 42.2769H27.7201C27.1478 42.2769 26.6816 41.8108 26.6816 41.2385V21.3139C26.6816 20.7415 27.1478 20.2754 27.7201 20.2754H31.2832C31.8555 20.2754 32.3216 20.7415 32.3216 21.3139V41.2385C32.3216 41.8108 31.8555 42.2769 31.2832 42.2769ZM28.7586 40.2H30.2447V22.3523H28.7586V40.2Z" fill="#034DA2"/>
<path d="M32.557 22.3572H26.4508C25.8785 22.3572 25.4124 21.891 25.4124 21.3187C25.4124 20.7464 25.8785 20.2803 26.4508 20.2803H32.557C33.1293 20.2803 33.5954 20.7464 33.5954 21.3187C33.5954 21.891 33.1293 22.3572 32.557 22.3572Z" fill="#464C53"/>
<path d="M42.4244 21.3184H38.8613V41.243H42.4244V21.3184Z" fill="white"/>
<path d="M42.4199 42.2769H38.8568C38.2845 42.2769 37.8184 41.8108 37.8184 41.2385V21.3139C37.8184 20.7415 38.2845 20.2754 38.8568 20.2754H42.4199C42.9922 20.2754 43.4584 20.7415 43.4584 21.3139V41.2385C43.4584 41.8108 42.9922 42.2769 42.4199 42.2769ZM39.8999 40.2H41.386V22.3523H39.8999V40.2Z" fill="#034DA2"/>
<path d="M43.6937 22.3572H37.5875C37.0152 22.3572 36.5491 21.891 36.5491 21.3187C36.5491 20.7464 37.0152 20.2803 37.5875 20.2803H43.6937C44.266 20.2803 44.7321 20.7464 44.7321 21.3187C44.7321 21.891 44.266 22.3572 43.6937 22.3572Z" fill="#464C53"/>
<path d="M23.9355 1.03857L1.03857 17.6124H46.8278L23.9355 1.03857Z" fill="white"/>
<path d="M46.828 18.6511H1.03874C0.586437 18.6511 0.189514 18.3603 0.0510524 17.9311C-0.0874091 17.5019 0.0648986 17.0357 0.429514 16.768L23.3264 0.198773C23.6911 -0.0643044 24.1803 -0.0643044 24.5449 0.198773L47.4418 16.7726C47.8064 17.0357 47.9587 17.5065 47.8203 17.9357C47.6818 18.3649 47.2803 18.6557 46.8326 18.6557L46.828 18.6511ZM4.24644 16.5742H43.6249L23.9357 2.32185L4.24644 16.5742Z" fill="#464C53"/>
<path d="M46.8278 40.5649H1.03857V46.5696H46.8278V40.5649Z" fill="white"/>
<path d="M46.8277 47.6079H1.03846C0.466154 47.6079 0 47.1418 0 46.5694V40.5648C0 39.9925 0.466154 39.5264 1.03846 39.5264H46.8277C47.4 39.5264 47.8662 39.9925 47.8662 40.5648V46.5694C47.8662 47.1418 47.4 47.6079 46.8277 47.6079ZM2.07692 45.531H45.7892V41.6033H2.07692V45.531Z" fill="#464C53"/>
<path d="M26.7047 10.9338C26.7047 9.40609 25.4632 8.16455 23.9355 8.16455C22.4078 8.16455 21.1663 9.40609 21.1663 10.9338C21.1663 12.4615 22.4078 13.703 23.9355 13.703C25.4632 13.703 26.7047 12.4615 26.7047 10.9338Z" fill="#034DA2"/>
</g>
<defs>
<clipPath id="clip0_719_12840">
<rect width="48" height="48" fill="white"/>
</clipPath>
</defs>
</svg>
