<svg width="16" height="16" viewBox="0 0 16 16" fill="none" xmlns="http://www.w3.org/2000/svg">
<g clip-path="url(#clip0_431_56563)">
<path d="M1.77778 16C1.28889 16 0.87037 15.8259 0.522222 15.4778C0.174074 15.1296 0 14.7111 0 14.2222V5.33333C0 4.84444 0.174074 4.42593 0.522222 4.07778C0.87037 3.72963 1.28889 3.55556 1.77778 3.55556H3.55556V1.77778C3.55556 1.28889 3.72963 0.87037 4.07778 0.522222C4.42593 0.174074 4.84444 0 5.33333 0H10.6667C11.1556 0 11.5741 0.174074 11.9222 0.522222C12.2704 0.87037 12.4444 1.28889 12.4444 1.77778V7.11111H14.2222C14.7111 7.11111 15.1296 7.28519 15.4778 7.63333C15.8259 7.98148 16 8.4 16 8.88889V14.2222C16 14.7111 15.8259 15.1296 15.4778 15.4778C15.1296 15.8259 14.7111 16 14.2222 16H8.88889V12.4444H7.11111V16H1.77778ZM1.77778 14.2222H3.55556V12.4444H1.77778V14.2222ZM1.77778 10.6667H3.55556V8.88889H1.77778V10.6667ZM1.77778 7.11111H3.55556V5.33333H1.77778V7.11111ZM5.33333 10.6667H7.11111V8.88889H5.33333V10.6667ZM5.33333 7.11111H7.11111V5.33333H5.33333V7.11111ZM5.33333 3.55556H7.11111V1.77778H5.33333V3.55556ZM8.88889 10.6667H10.6667V8.88889H8.88889V10.6667ZM8.88889 7.11111H10.6667V5.33333H8.88889V7.11111ZM8.88889 3.55556H10.6667V1.77778H8.88889V3.55556ZM12.4444 14.2222H14.2222V12.4444H12.4444V14.2222ZM12.4444 10.6667H14.2222V8.88889H12.4444V10.6667Z" fill="#034DA2"/>
</g>
<defs>
<clipPath id="clip0_431_56563">
<rect width="16" height="16" fill="white"/>
</clipPath>
</defs>
</svg>
