<svg width="46" height="48" viewBox="0 0 46 48" fill="none" xmlns="http://www.w3.org/2000/svg">
<g clip-path="url(#clip0_719_4220)">
<path d="M35.4707 1.03857H1.0354V33.1478L9.03472 41.1693H35.4707V1.03857Z" fill="white"/>
<path d="M35.4707 42.2077H9.0348C8.7588 42.2077 8.49661 42.0969 8.30341 41.9031L0.304085 33.8815C0.110887 33.6831 0.000488281 33.42 0.000488281 33.1477V1.03846C0.000488281 0.466154 0.465084 0 1.03548 0H35.4707C36.0411 0 36.5057 0.466154 36.5057 1.03846V41.1692C36.5057 41.7415 36.0411 42.2077 35.4707 42.2077ZM9.4626 40.1308H34.4358V2.07692H2.07047V32.7138L9.4626 40.1308Z" fill="#464C53"/>
<path d="M9.03497 33.1479H1.03564L9.03497 41.1695V33.1479Z" fill="white"/>
<path d="M9.03491 42.2078C8.76351 42.2078 8.50132 42.1017 8.30352 41.9032L0.304195 33.8817C0.00979806 33.5863 -0.082201 33.1386 0.0787974 32.7509C0.239796 32.3632 0.616992 32.1094 1.03559 32.1094H9.03491C9.6053 32.1094 10.0699 32.5755 10.0699 33.1478V41.174C10.0699 41.594 9.8169 41.9725 9.43051 42.134C9.30171 42.1894 9.16831 42.2125 9.03491 42.2125V42.2078ZM3.53336 34.1863L7.99992 38.6678V34.1863H3.53336Z" fill="#464C53"/>
<path d="M21.4131 9.0277C21.4131 7.27386 19.9963 5.85693 18.2529 5.85693C16.5096 5.85693 15.0928 7.27847 15.0928 9.0277C15.0928 10.7769 16.5096 12.1985 18.2529 12.1985C19.9963 12.1985 21.4131 10.7769 21.4131 9.0277Z" fill="#034DA2"/>
<path d="M22.4758 13.8091H14.0257C12.0431 13.8091 10.4331 15.4245 10.4331 17.4137V21.3045H26.0684V17.4137C26.0684 15.4245 24.4584 13.8091 22.4758 13.8091Z" fill="#034DA2"/>
<path d="M44.2014 42.7018C45.1444 43.648 45.1444 45.1803 44.2014 46.1218C43.2584 47.068 41.7358 47.068 40.7928 46.1218L36.6023 41.9172C35.6593 40.9711 35.6593 39.4434 36.6023 38.4972C37.5453 37.5511 39.0678 37.5511 40.0108 38.4972L44.2014 42.7018Z" fill="white"/>
<path d="M42.4995 47.8665C41.5795 47.8665 40.7147 47.5065 40.0615 46.8557L35.8709 42.6511C35.2177 42.0004 34.8635 41.1327 34.8635 40.205C34.8635 39.2773 35.2223 38.4142 35.8709 37.7588C36.5195 37.1034 37.3889 36.748 38.3089 36.748C39.2289 36.748 40.0937 37.108 40.7469 37.7588L44.9374 41.9634C45.586 42.6188 45.9448 43.4865 45.9448 44.4096C45.9448 45.3327 45.586 46.2004 44.9374 46.8557C44.2842 47.5065 43.4194 47.8665 42.4995 47.8665ZM38.3089 38.825C37.9409 38.825 37.5959 38.968 37.3383 39.2311C37.0807 39.4942 36.9335 39.8404 36.9335 40.2096C36.9335 40.5788 37.0761 40.925 37.3383 41.1834L41.5289 45.388C42.0487 45.9096 42.9548 45.9096 43.4746 45.388C43.7368 45.1296 43.8794 44.7834 43.8794 44.4142C43.8794 44.045 43.7368 43.6988 43.4746 43.4357L39.2841 39.2311C39.0219 38.9727 38.6769 38.825 38.3089 38.825Z" fill="#464C53"/>
<path d="M40.1766 27.42C36.1424 23.3724 29.6013 23.3724 25.5671 27.42C21.533 31.4677 21.533 38.0308 25.5671 42.0785C29.6013 46.1262 36.1424 46.1262 40.1766 42.0785C44.2107 38.0308 44.2107 31.4677 40.1766 27.42Z" fill="white"/>
<path d="M32.8672 46.154C29.8312 46.154 26.9747 44.9678 24.8311 42.8124C22.6875 40.657 21.5007 37.7955 21.5007 34.7493C21.5007 31.7032 22.6829 28.837 24.8311 26.6863C26.9793 24.5355 29.8312 23.3447 32.8672 23.3447C35.9032 23.3447 38.7598 24.5309 40.9033 26.6863C43.0469 28.8416 44.2337 31.7032 44.2337 34.7493C44.2337 37.7955 43.0515 40.657 40.9033 42.8124C38.7552 44.9678 35.9032 46.154 32.8672 46.154ZM32.8672 25.4216C30.3832 25.4216 28.0511 26.3909 26.2939 28.154C24.5367 29.917 23.5707 32.257 23.5707 34.7493C23.5707 37.2417 24.5367 39.5817 26.2939 41.3447C28.0511 43.1078 30.3832 44.077 32.8672 44.077C35.3512 44.077 37.6834 43.1078 39.4406 41.3447C41.1977 39.5817 42.1637 37.2417 42.1637 34.7493C42.1637 32.257 41.1977 29.917 39.4406 28.154C37.6834 26.3909 35.3512 25.4216 32.8672 25.4216Z" fill="#464C53"/>
<path d="M37.4671 30.1339C34.9279 27.5862 30.811 27.5862 28.2718 30.1339C25.7326 32.6816 25.7326 36.8124 28.2718 39.3601C30.811 41.9078 34.9279 41.9078 37.4671 39.3601C40.0063 36.8124 40.0063 32.6816 37.4671 30.1339Z" fill="white"/>
<path d="M32.8672 42.3141C30.8524 42.3141 28.9618 41.5295 27.5358 40.0987C24.5965 37.1495 24.5965 32.3541 27.5358 29.4048C28.9618 27.9741 30.8524 27.1895 32.8672 27.1895C34.882 27.1895 36.7725 27.9741 38.1985 29.4048C39.6199 30.831 40.4065 32.7325 40.4065 34.7541C40.4065 36.7756 39.6245 38.6725 38.1985 40.1033C36.7725 41.5295 34.882 42.3187 32.8672 42.3187V42.3141ZM32.8672 29.2618C31.409 29.2618 30.0336 29.8341 28.9986 30.8679C26.8688 33.0048 26.8688 36.4848 28.9986 38.6264C30.0336 39.6602 31.4044 40.2325 32.8672 40.2325C34.33 40.2325 35.7007 39.6602 36.7357 38.6264C37.7707 37.5879 38.3365 36.2125 38.3365 34.7495C38.3365 33.2864 37.7661 31.9064 36.7357 30.8679C35.7007 29.8295 34.33 29.2618 32.8672 29.2618Z" fill="#034DA2"/>
<path d="M25.843 27.7156H10.6632C10.0928 27.7156 9.62817 27.2494 9.62817 26.6771C9.62817 26.1048 10.0928 25.6387 10.6632 25.6387H25.843C26.4134 25.6387 26.878 26.1048 26.878 26.6771C26.878 27.2494 26.4134 27.7156 25.843 27.7156Z" fill="#464C53"/>
<path d="M22.1262 33.0232H14.3753C13.8049 33.0232 13.3403 32.5571 13.3403 31.9848C13.3403 31.4124 13.8049 30.9463 14.3753 30.9463H22.1262C22.6966 30.9463 23.1612 31.4124 23.1612 31.9848C23.1612 32.5571 22.6966 33.0232 22.1262 33.0232Z" fill="#464C53"/>
</g>
<defs>
<clipPath id="clip0_719_4220">
<rect width="46" height="48" fill="white"/>
</clipPath>
</defs>
</svg>
