<svg width="463" height="226" viewBox="0 0 463 226" fill="none" xmlns="http://www.w3.org/2000/svg">
<g clip-path="url(#clip0_31_771)">
<path d="M107.347 130.082H38.5748V172.208H107.347V130.082Z" fill="#E37669"/>
<path d="M107.347 130.082H83.3476L87.978 123.494H107.347V130.082Z" fill="#A54952"/>
<path d="M72.5012 234H3.29714C-0.16216 219.853 -3.07194 196.431 6.42313 173.017H70.4293L72.5012 234Z" fill="#AEB5EC"/>
<path d="M20.1973 53.7837C11.8103 57.0823 5.06283 64.1827 6.17089 71.6426C7.26994 79.1026 8.86446 84.3605 3.72055 84.4864C12.3057 84.6122 31.6742 73.8806 24.4403 55.4554L20.2063 53.7927L20.1973 53.7837Z" fill="#272525"/>
<path d="M20.2696 54.1881C12.6032 55.9857 4.73874 61.1807 4.62163 69.8001L3.80184 69.8181C2.919 60.6324 11.9817 54.6285 20.1254 53.3882L20.2606 54.1881H20.2696Z" fill="#272525"/>
<path d="M68.7537 137.003L70.4293 173.008H6.42313C8.45007 169.242 12.4048 162.978 12.1526 156.488C11.8193 147.662 9.59416 139.501 6.20693 128.958C-8.03567 84.6032 20.4045 75.7231 20.4045 75.7231L48.8717 76.8287C48.8717 76.8287 69.4293 95.6313 71.7535 108.053C73.1949 115.71 71.7175 124.932 70.3752 130.873C69.5374 134.567 68.7537 136.994 68.7537 136.994V137.003Z" fill="#CED3F4"/>
<path d="M62.835 173.017L62.4206 134.693L63.1683 130.891L64.2764 125.219C66.0241 116.241 64.1142 106.929 58.9613 99.3702L49.7275 85.8345" stroke="#F8EFE5" stroke-miterlimit="10"/>
<path d="M43.8088 68.4429L54.1237 76.0107L53.8624 86.922L43.8088 78.1858V68.4429Z" fill="#AEB5EC"/>
<path d="M42.7819 21.8405C50.0158 20.2496 58.1055 26.8557 60.7991 33.7045C63.4926 40.5533 57.565 44.9663 57.565 44.9663L42.7819 21.8405Z" fill="#272525"/>
<path d="M48.5113 52.0488C52.7994 56.5967 54.2318 63.5623 61.727 63.5893L61.8981 64.3892C56.4569 66.771 50.9527 62.1422 48.7095 57.4595C47.9618 55.8777 47.5024 54.161 47.7366 52.2825L48.5203 52.0488H48.5113Z" fill="#272525"/>
<path d="M21.7738 59.0414C21.7738 59.0414 8.5762 50.5029 10.2068 31.2958C11.8373 12.0887 48.4213 5.47356 56.6011 34.2528L21.7738 59.0504V59.0414Z" fill="#272525"/>
<path d="M57.0515 36.7963C56.3939 31.9788 53.394 25.3547 48.7185 24.0065C46.9258 23.4942 44.9439 23.0718 42.7819 22.8561C31.1968 21.6247 23.008 31.5833 19.9901 33.4977L19.7739 41.3711C19.4406 41.3711 19.0982 41.4071 18.7649 41.488C15.8101 42.225 14.1886 45.919 15.1435 49.7479C16.0984 53.5767 19.2604 56.0933 22.2242 55.3653C22.2513 55.3653 22.2783 55.3383 22.3053 55.3383C23.5485 64.2004 20.3144 72.9097 18.9271 76.415L34.8723 75.8577L49.196 84.9714L45.2502 73.8983C44.3764 70.2762 45.034 65.8632 44.9529 65.5396C58.2947 61.6478 58.3307 46.0988 57.0605 36.7963H57.0515Z" fill="#F5C7B6"/>
<path d="M20.7468 44.9663C18.9721 45.0023 17.2335 46.7998 17.2155 48.4626" stroke="#272525" stroke-width="0.99" stroke-linecap="round" stroke-linejoin="round"/>
<path d="M39.9442 43.5283C40.9392 43.5283 41.7459 42.7235 41.7459 41.7307C41.7459 40.7379 40.9392 39.9331 39.9442 39.9331C38.9491 39.9331 38.1424 40.7379 38.1424 41.7307C38.1424 42.7235 38.9491 43.5283 39.9442 43.5283Z" fill="#272525"/>
<path d="M54.421 42.8183C55.416 42.8183 56.2227 42.0135 56.2227 41.0207C56.2227 40.0279 55.416 39.2231 54.421 39.2231C53.4259 39.2231 52.6193 40.0279 52.6193 41.0207C52.6193 42.0135 53.4259 42.8183 54.421 42.8183Z" fill="#272525"/>
<path d="M49.0699 41.7935C49.0699 41.7935 51.5653 44.373 51.2319 45.1549C50.8986 45.9369 49.1239 47.0154 48.8807 46.9615" stroke="#E37669" stroke-linecap="round" stroke-linejoin="round"/>
<path d="M56.0966 36.5896C56.0966 36.5896 54.3129 35.5739 52.7454 36.5896" stroke="#272525" stroke-width="0.99" stroke-linecap="round" stroke-linejoin="round"/>
<path d="M41.6738 36.6344C41.6738 36.6344 39.4036 35.7357 37.3227 37.5602" stroke="#272525" stroke-width="0.99" stroke-linecap="round" stroke-linejoin="round"/>
<path d="M40.8835 48.1462C42.8446 48.0197 44.3806 47.0859 44.3141 46.0605C44.2477 45.0351 42.6039 44.3065 40.6428 44.433C38.6816 44.5595 37.1457 45.4933 37.2122 46.5187C37.2786 47.5441 38.9223 48.2728 40.8835 48.1462Z" fill="#F08F7B"/>
<path d="M55.2858 47.3479C56.8978 47.3479 58.2046 46.515 58.2046 45.4874C58.2046 44.4599 56.8978 43.627 55.2858 43.627C53.6738 43.627 52.367 44.4599 52.367 45.4874C52.367 46.515 53.6738 47.3479 55.2858 47.3479Z" fill="#F08F7B"/>
<path d="M51.6283 50.8086C49.4482 51.5096 47.097 51.4737 44.6196 50.9434" stroke="#E37669" stroke-linecap="round" stroke-linejoin="round"/>
<path d="M42.917 21.4722C44.2683 20.861 45.3493 21.4722 46.2772 22.3171C47.8177 23.5664 48.8266 25.4628 49.1239 27.3773C49.5383 30.3343 48.6014 33.7048 45.9979 35.3585C45.8088 35.4664 45.5655 35.4125 45.4484 35.2237C45.3493 35.0619 45.3854 34.8732 45.5025 34.7473C47.6195 31.9431 47.5384 27.5121 45.1331 24.9595C44.2052 23.9079 43.1782 23.872 42.6377 22.2182C42.5116 21.9396 42.6287 21.598 42.908 21.4812L42.917 21.4722Z" fill="#272525"/>
<path d="M16.0533 25.3997L18.7649 41.4881C31.359 54.925 35.557 35.1156 38.3046 28.7163C38.3046 28.7163 40.5657 22.0832 44.6106 22.0832C31.368 16.3309 16.0443 25.3997 16.0443 25.3997H16.0533Z" fill="#272525"/>
<path d="M50.8716 99.3881C51.9214 99.3881 52.7724 98.539 52.7724 97.4917C52.7724 96.4443 51.9214 95.5952 50.8716 95.5952C49.8218 95.5952 48.9708 96.4443 48.9708 97.4917C48.9708 98.539 49.8218 99.3881 50.8716 99.3881Z" fill="white" stroke="#6C473F" stroke-miterlimit="10"/>
<path d="M56.6821 110.29C57.7319 110.29 58.5829 109.441 58.5829 108.394C58.5829 107.347 57.7319 106.498 56.6821 106.498C55.6323 106.498 54.7813 107.347 54.7813 108.394C54.7813 109.441 55.6323 110.29 56.6821 110.29Z" fill="white" stroke="#6C473F" stroke-miterlimit="10"/>
<path d="M115.265 56.983C119.508 67.7954 100.329 76.7024 100.329 76.7024L92.185 93.2761L81.3026 115.422C78.0956 120.069 72.8256 122.882 67.1591 122.972L20.3414 123.547C18.2424 123.574 16.2335 123.206 14.3867 122.505L13.9633 92.1796C15.2335 91.6583 16.5848 91.2898 17.9992 91.1101L59.727 90.4899L68.6726 78.2753L80.3207 63.5711C80.3207 63.5711 87.1132 45.4425 94.1489 40.5711C101.185 35.6996 115.283 33.6055 115.283 33.6055C115.283 33.6055 116.607 36.167 115.283 39.5195C113.959 42.881 104.356 44.9482 104.356 44.9482C104.356 44.9482 111.031 46.1526 115.256 56.974L115.265 56.983Z" fill="#F5C7B6"/>
<mask id="mask0_31_771" style="mask-type:luminance" maskUnits="userSpaceOnUse" x="13" y="33" width="103" height="91">
<path d="M115.265 56.983C119.508 67.7954 100.329 76.7024 100.329 76.7024L92.185 93.2761L81.3026 115.422C78.0956 120.069 72.8256 122.882 67.1591 122.972L20.3414 123.547C18.2424 123.574 16.2335 123.206 14.3867 122.505L13.9633 92.1796C15.2335 91.6583 16.5848 91.2898 17.9992 91.1101L59.727 90.4899L68.6726 78.2753L80.3207 63.5711C80.3207 63.5711 87.1132 45.4425 94.1489 40.5711C101.185 35.6996 115.283 33.6055 115.283 33.6055C115.283 33.6055 116.607 36.167 115.283 39.5195C113.959 42.881 104.356 44.9482 104.356 44.9482C104.356 44.9482 111.031 46.1526 115.256 56.974L115.265 56.983Z" fill="white"/>
</mask>
<g mask="url(#mask0_31_771)">
<path d="M105.04 45.4243L100.059 47.4915" stroke="#E37669" stroke-linecap="round" stroke-linejoin="round"/>
<path d="M110.554 49.4419L105.572 51.5001" stroke="#E37669" stroke-linecap="round" stroke-linejoin="round"/>
<path d="M114.553 54.8794L109.572 56.9376" stroke="#E37669" stroke-linecap="round" stroke-linejoin="round"/>
</g>
<path d="M92.185 93.2762L81.3026 115.422C78.0956 120.069 72.8255 122.882 67.1591 122.972L20.3414 123.547C18.2424 123.574 16.2335 123.206 14.3867 122.505C8.28791 120.213 3.90973 114.38 3.81064 107.486V107.27C3.81064 100.476 7.99964 94.6154 13.9633 92.1797C15.2335 91.6584 16.5848 91.2899 17.9992 91.1101C18.6298 91.0202 19.2784 90.9753 19.936 90.9663L59.727 90.49L68.6726 78.2754L92.176 93.2762H92.185Z" fill="#CED3F4"/>
<path d="M92.185 93.2762L81.3026 115.422C78.0956 120.069 72.8255 122.882 67.1591 122.972L20.3414 123.547C18.2424 123.574 16.2335 123.206 14.3867 122.505C8.28791 120.213 3.90973 114.38 3.81064 107.486V107.27C3.81064 100.476 7.99964 94.6154 13.9633 92.1797C15.2335 91.6584 16.5848 91.2899 17.9992 91.1101C18.6298 91.0202 19.2784 90.9753 19.936 90.9663L59.727 90.49L68.6726 78.2754" stroke="#F8EFE5" stroke-miterlimit="10"/>
<path d="M38.4127 92.1889V74.7434L21.5666 66.1689L18.9181 76.4151L38.4127 92.1889Z" fill="#AEB5EC"/>
<path d="M180.704 17.4545H163.209L167.902 0H185.397L180.704 17.4545Z" fill="#8992CE"/>
<g style="mix-blend-mode:multiply">
<path d="M159.605 57.909H108.13L117.517 22.9551H168.983L159.605 57.909Z" fill="#F9C98B"/>
</g>
<path d="M190.027 77.9969H138.561L147.948 43.043H199.414L190.027 77.9969Z" fill="#F4A8A8" stroke="#F8EFE5" stroke-miterlimit="10"/>
</g>
<g clip-path="url(#clip1_31_771)">
<g clip-path="url(#clip2_31_771)">
<path d="M250.86 22H310.88C315.77 22 319.74 25.97 319.74 30.86V55.54H250.86C245.97 55.54 242 51.57 242 46.68V30.86C242 25.97 245.97 22 250.86 22Z" fill="white"/>
<path d="M259.97 44.2498C262.234 44.2498 264.07 42.4142 264.07 40.1498C264.07 37.8854 262.234 36.0498 259.97 36.0498C257.706 36.0498 255.87 37.8854 255.87 40.1498C255.87 42.4142 257.706 44.2498 259.97 44.2498Z" fill="#AEB5EC"/>
<path d="M280.87 44.2498C283.134 44.2498 284.97 42.4142 284.97 40.1498C284.97 37.8854 283.134 36.0498 280.87 36.0498C278.606 36.0498 276.77 37.8854 276.77 40.1498C276.77 42.4142 278.606 44.2498 280.87 44.2498Z" fill="#AEB5EC"/>
<path d="M301.78 44.2498C304.044 44.2498 305.88 42.4142 305.88 40.1498C305.88 37.8854 304.044 36.0498 301.78 36.0498C299.516 36.0498 297.68 37.8854 297.68 40.1498C297.68 42.4142 299.516 44.2498 301.78 44.2498Z" fill="#AEB5EC"/>
</g>
<path d="M311.999 49.9226C307.39 45.73 295.348 50.2297 295.348 50.2297C295.348 50.2297 285.931 41.823 284.779 40.3731C283.626 38.9232 280.746 39.0731 280.17 41.673C279.857 43.073 285.006 50.5654 291.223 59.1222C290.661 61.5863 291.493 67.0861 291.6 68.586C291.785 71.0645 303.065 75.1285 303.065 75.1285L319.126 64.7576C319.126 64.7576 316.615 54.1224 311.999 49.9226Z" fill="#F5C7B6"/>
<path d="M319.118 64.7578L350.563 97.042L329.759 115.877L303.058 75.1287L319.118 64.7578Z" fill="#F5C7B6"/>
<path d="M372.179 115.798C372.179 115.798 352.071 94.5635 351.744 94.8635L328.237 117.327C327.938 117.605 354.433 150.061 354.433 150.061C354.511 150.168 354.561 150.289 354.575 150.418L364.71 219.343C364.767 219.736 365.109 220.029 365.507 220.029C365.507 220.029 424.03 219.686 424.037 219.25L425.95 159.932C425.95 159.725 425.879 159.518 425.744 159.368L405.075 136.519C405.025 136.461 404.968 136.419 404.904 136.376L372.335 115.941C372.278 115.905 372.221 115.855 372.172 115.805L372.179 115.798Z" fill="#75667E"/>
<path d="M459.273 199.758L425.744 159.36L400.629 183.038L416.17 199.194L384.007 203.615L363.174 198.48L355.827 214.708C355.827 214.708 361.617 225.986 382.883 225.986H447.039C460.539 225.986 467.908 210.179 459.266 199.766L459.273 199.758Z" fill="#F5C7B6"/>
<path d="M344.816 207.986C343.301 207.858 341.929 206.872 341.367 205.344C340.599 203.244 341.673 200.915 343.764 200.144L353.231 196.651C353.992 196.373 354.81 196.33 355.592 196.523L366.773 199.315C368.935 199.858 370.251 202.051 369.711 204.222C369.17 206.394 366.987 207.715 364.824 207.172L354.845 204.679L346.538 207.744C345.969 207.951 345.378 208.029 344.809 207.979L344.816 207.986Z" fill="#F5C7B6"/>
<path d="M348.664 217.515C347.733 217.515 346.794 217.193 346.033 216.536C344.347 215.079 344.155 212.522 345.606 210.822L351.374 204.094C352.285 203.03 353.686 202.515 355.073 202.737L366.446 204.572C368.644 204.929 370.137 207.008 369.789 209.215C369.44 211.422 367.371 212.929 365.166 212.572L356.019 211.093L351.716 216.107C350.919 217.036 349.788 217.515 348.657 217.515H348.664Z" fill="#F5C7B6"/>
<path d="M353.935 222.207C353.821 222.207 353.7 222.207 353.586 222.193C351.367 222 349.724 220.043 349.916 217.814L350.421 211.886C350.521 210.765 351.076 209.736 351.958 209.043C352.839 208.351 353.97 208.058 355.08 208.236L366.453 210.072C368.651 210.429 370.145 212.508 369.796 214.715C369.44 216.922 367.378 218.429 365.173 218.072L358.089 216.929L357.953 218.514C357.776 220.629 356.012 222.214 353.942 222.214L353.935 222.207Z" fill="#F5C7B6"/>
<path d="M425.751 159.36L441.463 177.538L411.54 197.209L395.992 183.395L425.751 159.36Z" fill="#75667E"/>
<path d="M382.769 93.4278C382.769 93.4278 377.783 86.1281 381.283 80.6498C384.782 75.1715 388.075 75.5858 388.075 75.5858L399.498 87.3709C399.498 87.3709 397.03 83.1354 398.574 79.6213C398.986 80.2427 402.486 88.5066 407.216 89.9565C411.953 91.4064 419.513 93.7492 422.081 102.849C424.649 111.948 416.675 127.562 403.161 129.919C402.834 129.976 402.507 130.026 402.173 130.062C387.969 131.719 382.762 93.4349 382.762 93.4349L382.769 93.4278Z" fill="#6C473F"/>
<path d="M382.769 93.4275C377.634 97.2631 371.091 115.841 371.816 121.883C372.684 129.062 382.03 130.961 382.03 130.961L383.801 152.325L407.927 143.968L396.696 98.2273L382.762 93.4204L382.769 93.4275Z" fill="#F5C7B6"/>
<path d="M392.421 96.7492C392.421 96.7492 395.928 99.1848 396.063 102.292C396.198 105.399 394.42 113.27 394.42 113.27L404.89 107.17C404.89 107.17 400.06 93.135 392.414 96.7492H392.421Z" fill="#6C473F"/>
<path d="M375.977 105.013L371.908 107.691C371.503 107.956 371.46 108.541 371.83 108.856L374.476 111.756L375.977 105.006V105.013Z" fill="#F5C7B6"/>
<path d="M381.24 108.648C382.049 108.648 382.705 107.99 382.705 107.177C382.705 106.364 382.049 105.706 381.24 105.706C380.431 105.706 379.775 106.364 379.775 107.177C379.775 107.99 380.431 108.648 381.24 108.648Z" fill="#272525"/>
<path d="M380.55 102.884C380.55 102.884 382.492 102.441 383.936 104.184" stroke="#6C473F" stroke-width="0.99" stroke-linecap="round" stroke-linejoin="round"/>
<path d="M399.854 122.183C403.224 122.183 405.957 119.44 405.957 116.055C405.957 112.67 403.224 109.927 399.854 109.927C396.484 109.927 393.751 112.67 393.751 116.055C393.751 119.44 396.484 122.183 399.854 122.183Z" fill="#F5C7B6"/>
<path d="M399.854 112.512C401.803 112.512 403.382 114.098 403.382 116.055C403.382 118.012 401.803 119.598 399.854 119.598" fill="#F5C7B6"/>
<path d="M399.854 112.512C401.803 112.512 403.382 114.098 403.382 116.055C403.382 118.012 401.803 119.598 399.854 119.598" stroke="#272525" stroke-linecap="round" stroke-linejoin="round"/>
<path d="M372.598 114.898L379.434 114.419" stroke="#F08F7B" stroke-miterlimit="10"/>
<path d="M387.635 155.189L385.679 141.097L406.419 131.354L410.708 142.34L387.635 155.189Z" fill="#75667E"/>
<path d="M385.679 141.097L380.65 156.696L387.635 155.189L385.679 141.097Z" fill="#5B4F63"/>
<path d="M364.639 221.793H283.655V227H364.639V221.793Z" fill="#555F9E"/>
<path d="M348.664 221.793H283.655L267.367 180.017C266.898 178.267 268.213 176.545 270.02 176.545H329.339C330.584 176.545 331.672 177.381 331.992 178.588L348.664 221.793Z" fill="#555F9E"/>
<path d="M312.013 200.58C312.625 202.88 311.266 204.751 308.976 204.751C306.686 204.751 304.324 202.887 303.713 200.58C303.101 198.273 304.459 196.409 306.75 196.409C309.04 196.409 311.401 198.273 312.013 200.58Z" stroke="#F8EFE5" stroke-miterlimit="10"/>
</g>
<defs>
<clipPath id="clip0_31_771">
<rect width="200" height="234" fill="white"/>
</clipPath>
<clipPath id="clip1_31_771">
<rect width="217" height="208" fill="white" transform="translate(246 19)"/>
</clipPath>
<clipPath id="clip2_31_771">
<rect width="77.75" height="33.54" fill="white" transform="translate(242 22)"/>
</clipPath>
</defs>
</svg>
