<svg width="20" height="20" viewBox="0 0 20 20" fill="none" xmlns="http://www.w3.org/2000/svg">
<path d="M10 18.3327C9.54167 18.3327 9.14931 18.1695 8.82292 17.8431C8.49653 17.5167 8.33333 17.1243 8.33333 16.666H11.6667C11.6667 17.1243 11.5035 17.5167 11.1771 17.8431C10.8507 18.1695 10.4583 18.3327 10 18.3327ZM7.5 15.8327C7.26389 15.8327 7.06597 15.7528 6.90625 15.5931C6.74653 15.4334 6.66667 15.2355 6.66667 14.9993C6.66667 14.7632 6.74653 14.5653 6.90625 14.4056C7.06597 14.2459 7.26389 14.166 7.5 14.166H12.5C12.7361 14.166 12.934 14.2459 13.0938 14.4056C13.2535 14.5653 13.3333 14.7632 13.3333 14.9993C13.3333 15.2355 13.2535 15.4334 13.0938 15.5931C12.934 15.7528 12.7361 15.8327 12.5 15.8327H7.5ZM6.875 13.3327C5.91667 12.7632 5.15625 11.9993 4.59375 11.041C4.03125 10.0827 3.75 9.04102 3.75 7.91602C3.75 6.1799 4.35764 4.70421 5.57292 3.48893C6.78819 2.27365 8.26389 1.66602 10 1.66602C11.7361 1.66602 13.2118 2.27365 14.4271 3.48893C15.6424 4.70421 16.25 6.1799 16.25 7.91602C16.25 9.04102 15.9688 10.0827 15.4062 11.041C14.8438 11.9993 14.0833 12.7632 13.125 13.3327H6.875Z" fill="#034DA2"/>
</svg>
